<?xml version="1.0" standalone="no"?>
<!DOCTYPE svg PUBLIC "-//W3C//DTD SVG 20010904//EN"
 "http://www.w3.org/TR/2001/REC-SVG-20010904/DTD/svg10.dtd">
<svg version="1.0" xmlns="http://www.w3.org/2000/svg"
 width="1000.000000pt" height="1000.000000pt" viewBox="0 0 1000.000000 1000.000000"
 preserveAspectRatio="xMidYMid meet">
<metadata>
Created by potrace 1.11, written by Peter Selinger 2001-2013
</metadata>
<g transform="translate(0.000000,1000.000000) scale(0.100000,-0.100000)"
fill="#000000" stroke="none">
<path d="M4363 9165 c-150 -41 -246 -141 -288 -302 -13 -49 -15 -214 -15
-1150 0 -601 -2 -1093 -4 -1093 -2 0 -417 239 -922 530 -505 292 -943 540
-974 551 -78 30 -200 36 -276 15 -77 -22 -153 -75 -202 -139 -55 -73 -541
-920 -566 -987 -16 -43 -21 -78 -21 -165 0 -100 3 -115 27 -165 31 -64 92
-129 163 -175 28 -18 462 -270 965 -560 503 -290 916 -528 917 -529 0 0 -436
-253 -969 -561 -570 -329 -990 -577 -1018 -602 -132 -118 -162 -328 -72 -508
54 -108 517 -903 550 -943 104 -129 290 -175 464 -113 31 11 482 265 1002 565
520 300 948 546 951 546 3 0 5 -483 5 -1072 0 -649 4 -1097 10 -1133 29 -180
129 -306 279 -353 50 -15 112 -17 621 -17 636 0 644 1 758 74 92 60 148 141
171 249 8 37 11 375 11 1147 0 602 2 1095 5 1095 2 0 425 -243 939 -540 559
-323 960 -548 998 -561 93 -31 203 -24 292 20 125 61 152 98 445 605 145 251
273 480 284 509 15 38 21 76 21 142 1 86 -1 96 -36 167 -69 139 -58 132 -1091
728 -510 294 -927 537 -927 540 0 3 429 253 953 555 1059 612 1043 601 1110
742 29 61 32 77 32 158 0 64 -5 105 -19 140 -10 28 -136 255 -280 505 -231
403 -269 463 -328 523 -137 139 -315 170 -484 84 -27 -14 -474 -271 -994 -571
l-945 -546 -5 1153 c-5 1056 -6 1156 -22 1195 -51 128 -154 213 -300 247 -90
21 -1136 21 -1215 0z"/>
</g>
</svg>
