<?xml version="1.0" standalone="no"?>
<!DOCTYPE svg PUBLIC "-//W3C//DTD SVG 20010904//EN"
 "http://www.w3.org/TR/2001/REC-SVG-20010904/DTD/svg10.dtd">
<svg version="1.0" xmlns="http://www.w3.org/2000/svg"
 width="409.000000pt" height="409.000000pt" viewBox="0 0 409.000000 409.000000"
 preserveAspectRatio="xMidYMid meet">
<metadata>
Created by potrace 1.11, written by Peter Selinger 2001-2013
</metadata>
<g transform="translate(0.000000,409.000000) scale(0.100000,-0.100000)"
fill="#000000" stroke="none">
<path d="M1710 4069 c-53 -16 -86 -45 -112 -97 l-23 -47 -5 -532 -5 -532 -435
251 c-249 144 -456 257 -484 264 -89 25 -161 -1 -216 -78 -38 -52 -244 -411
-265 -461 -21 -50 -19 -120 4 -165 28 -54 69 -88 183 -152 177 -99 777 -446
777 -450 0 -3 -203 -122 -451 -265 -255 -147 -468 -276 -489 -296 -47 -47 -65
-113 -49 -183 12 -53 245 -473 289 -519 58 -64 151 -84 229 -52 20 9 125 67
232 129 569 331 681 396 685 396 3 0 5 -228 5 -507 0 -310 4 -526 11 -553 14
-63 52 -116 102 -142 41 -22 49 -23 337 -23 319 0 325 1 388 59 58 52 57 35
62 622 l5 542 130 -76 c535 -309 774 -444 807 -453 52 -13 100 -3 155 35 40
27 63 59 160 226 63 107 128 222 144 255 48 99 37 189 -32 254 -33 31 -102 72
-651 388 -142 81 -257 152 -255 156 2 8 113 73 706 415 162 93 211 126 237
160 38 50 51 113 36 172 -13 53 -246 455 -291 503 -49 53 -80 67 -146 67 -69
0 -46 12 -578 -294 -236 -135 -431 -246 -433 -246 -2 0 -4 233 -4 518 -1 284
-5 536 -9 559 -11 57 -47 107 -96 135 -39 22 -47 23 -330 25 -174 1 -304 -2
-325 -8z"/>
</g>
</svg>
