<svg xmlns="http://www.w3.org/2000/svg" xmlns:xlink="http://www.w3.org/1999/xlink" xmlns:math="http://www.w3.org/2005/xpath-functions/math" viewBox="0 0 2000 1200"><defs><marker id="mblack" markerHeight="3" markerUnits="strokeWidth" markerWidth="4" orient="auto" refX="0" refY="5" viewBox="0 0 10 10"><path d="M 0 0 L 10 5 L 0 10 z" fill="black" stroke="black"/></marker><g id="taxonomy"><text x="30" y="30" font-size="30" fill="red "><a href="http://yago-knowledge.org/graph/schema:Thing">schema:Thing</a></text><text x="30" y="90" font-size="30" fill="red "><a href="http://yago-knowledge.org/graph/schema:Person">schema:Person</a></text><line stroke-width="3" opacity="0.2" stroke="black" x1="120" y1="60" x2="120" y2="45" marker-end="url(#mblack)"/><text x="30" y="150" font-size="30" fill="blue"><a href="http://yago-knowledge.org/graph/yago:Human">yago:Human</a></text><line stroke-width="3" opacity="0.2" stroke="black" x1="120" y1="120" x2="120" y2="105" marker-end="url(#mblack)"/><text x="270" y="150" font-size="30" fill="blue"><a href="http://yago-knowledge.org/graph/yago:Twin">yago:Twin</a></text><line stroke-width="3" opacity="0.2" stroke="black" x1="360" y1="120" x2="120" y2="105" marker-end="url(#mblack)"/></g></defs><use href="#taxonomy" x="797.5" y="0" transform="scale(1)"/><text text-anchor="middle" x="1000" y="246" font-size="30" fill="black">yago:Elvis_Presley</text><line stroke-width="3" opacity="0.2" stroke="black" x1="1000" y1="210" x2="917.5" y2="165" marker-end="url(#mblack)"/><line stroke-width="3" opacity="0.2" stroke="black" x1="1000" y1="210" x2="1157.5" y2="165" marker-end="url(#mblack)"/><line x1="1240" y1="240" x2="1500" y2="240" transform="rotate(0 1000 240)" marker-end="url(#mblack)" stroke-width="3" stroke="black"/><text x="1530" y="249" transform="rotate(0 1000 240)" font-size="30"><a href="https://eu.wikipedia.org/wiki/Elvis_Presley" style="fill:blue"><title>https://eu.wikipedia.org/wiki/Elvis_Presley</title>https://eu.wikipedi…
		</a><a href="http://yago-knowledge.org/graph/yago:Elvis_Presley?relation=schema:sameAs" style="fill:blue">  (+
				154)				
			</a></text><text text-anchor="end" x="1485" y="234" transform="rotate(0 1000 240)" font-size="30">schema:sameAs</text><line x1="1212.78911564626" y1="240" x2="1500" y2="240" transform="rotate(8.571428571428571 1000 240)" marker-end="url(#mblack)" stroke-width="3" stroke="black"/><text x="1530" y="249" transform="rotate(8.571428571428571 1000 240)" font-size="30"><a href="http://yago-knowledge.org/graph/yago:Honorary_citizen_of_Budapest_Q56479277" style="fill:blue"><title>yago:Honorary_citizen_of_Budapest_Q56479277</title>yago:Honorary_citiz…
		</a><a href="http://yago-knowledge.org/graph/yago:Elvis_Presley?relation=schema:award" style="fill:blue">  (+
				3)				
			</a></text><text text-anchor="end" x="1485" y="234" transform="rotate(8.571428571428571 1000 240)" font-size="30">schema:award</text><line x1="1188.29931972789" y1="240" x2="1500" y2="240" transform="rotate(17.1428571428571 1000 240)" marker-end="url(#mblack)" stroke-width="3" stroke="black"/><text x="1530" y="249" transform="rotate(17.1428571428571 1000 240)" font-size="30"><a href="http://yago-knowledge.org/graph/yago:Graceland" style="fill:blue">yago:Graceland</a></text><text text-anchor="end" x="1485" y="234" transform="rotate(17.1428571428571 1000 240)" font-size="30"><title>schema:homeLocation</title>schema:homeLoca…
		</text><line x1="1166.5306122449" y1="240" x2="1500" y2="240" transform="rotate(25.7142857142857 1000 240)" marker-end="url(#mblack)" stroke-width="3" stroke="black"/><text x="1530" y="249" transform="rotate(25.7142857142857 1000 240)" font-size="30"><a href="http://commons.wikimedia.org/wiki/Special:FilePath/Elvis%20Presley%20promoting%20Jailhouse%20Rock.jpg" style="fill:blue"><title>http://commons.wikimedia.org/wiki/Special:FilePath/Elvis%20Presley%20promoting%20Jailhouse%20Rock.jpg</title>http://commons.wiki…
		</a></text><text text-anchor="end" x="1485" y="234" transform="rotate(25.7142857142857 1000 240)" font-size="30">schema:image</text><line x1="1147.48299319728" y1="240" x2="1500" y2="240" transform="rotate(34.2857142857143 1000 240)" marker-end="url(#mblack)" stroke-width="3" stroke="black"/><text x="1530" y="249" transform="rotate(34.2857142857143 1000 240)" font-size="30"><a href="http://yago-knowledge.org/graph/&quot;1977-08-16&quot;^^xsd:date?relation=all&amp;inverse=1" style="fill:blue">
				"1977-08-16"<tspan style="font-size:80%; " dy="-0.3em">^^xsd:date</tspan></a></text><text text-anchor="end" x="1485" y="234" transform="rotate(34.2857142857143 1000 240)" font-size="30">schema:deathDate</text><line x1="1131.15646258503" y1="240" x2="1500" y2="240" transform="rotate(42.8571428571429 1000 240)" marker-end="url(#mblack)" stroke-width="3" stroke="black"/><text x="1530" y="249" transform="rotate(42.8571428571429 1000 240)" font-size="30"><a href="http://yago-knowledge.org/graph/yago:male_Q6581097" style="fill:blue">yago:male_Q6581097</a></text><text text-anchor="end" x="1485" y="234" transform="rotate(42.8571428571429 1000 240)" font-size="30">schema:gender</text><line x1="1117.55102040816" y1="240" x2="1500" y2="240" transform="rotate(51.4285714285714 1000 240)" marker-end="url(#mblack)" stroke-width="3" stroke="black"/><text x="1530" y="249" transform="rotate(51.4285714285714 1000 240)" font-size="30"><a href="http://yago-knowledge.org/graph/yago:Actor" style="fill:blue">yago:Actor</a><a href="http://yago-knowledge.org/graph/yago:Elvis_Presley?relation=schema:hasOccupation" style="fill:blue">  (+
				7)				
			</a></text><text text-anchor="end" x="1485" y="234" transform="rotate(51.4285714285714 1000 240)" font-size="30"><title>schema:hasOccupation</title>schema:hasOccup…
		</text><line x1="1106.66666666667" y1="240" x2="1500" y2="240" transform="rotate(60 1000 240)" marker-end="url(#mblack)" stroke-width="3" stroke="black"/><text x="1530" y="249" transform="rotate(60 1000 240)" font-size="30"><a href="http://yago-knowledge.org/graph/yago:Priscilla_Presley" style="fill:blue"><title>yago:Priscilla_Presley</title>yago:Priscilla_Pres…
		</a></text><text text-anchor="end" x="1485" y="234" transform="rotate(60 1000 240)" font-size="30">schema:spouse</text><line x1="1098.50340136054" y1="240" x2="1500" y2="240" transform="rotate(68.5714285714286 1000 240)" marker-end="url(#mblack)" stroke-width="3" stroke="black"/><text x="1530" y="249" transform="rotate(68.5714285714286 1000 240)" font-size="30"><a href="http://yago-knowledge.org/graph/yago:Humes_Preparatory_Academy_Middle_School" style="fill:blue"><title>yago:Humes_Preparatory_Academy_Middle_School</title>yago:Humes_Preparat…
		</a></text><text text-anchor="end" x="1485" y="234" transform="rotate(68.5714285714286 1000 240)" font-size="30">schema:alumniOf</text><line x1="1093.0612244898" y1="240" x2="1500" y2="240" transform="rotate(77.1428571428571 1000 240)" marker-end="url(#mblack)" stroke-width="3" stroke="black"/><text x="1530" y="249" transform="rotate(77.1428571428571 1000 240)" font-size="30"><a href="http://yago-knowledge.org/graph/yago:United_States" style="fill:blue">yago:United_States</a></text><text text-anchor="end" x="1485" y="234" transform="rotate(77.1428571428571 1000 240)" font-size="30"><title>schema:nationality</title>schema:national…
		</text><line x1="1090.34013605442" y1="240" x2="1500" y2="240" transform="rotate(85.7142857142857 1000 240)" marker-end="url(#mblack)" stroke-width="3" stroke="black"/><text x="1530" y="249" transform="rotate(85.7142857142857 1000 240)" font-size="30"><a href="http://yago-knowledge.org/graph/yago:Gladys_Presley_Q12363015" style="fill:blue"><title>yago:Gladys_Presley_Q12363015</title>yago:Gladys_Presley…
		</a><a href="http://yago-knowledge.org/graph/yago:Elvis_Presley?relation=schema:parent" style="fill:blue">  (+
				1)				
			</a></text><text text-anchor="end" x="1485" y="234" transform="rotate(85.7142857142857 1000 240)" font-size="30">schema:parent</text><line x1="1090.34013605442" y1="240" x2="1500" y2="240" transform="rotate(94.2857142857143 1000 240)" marker-end="url(#mblack)" stroke-width="3" stroke="black"/><text text-anchor="end" x="470" y="246" transform="rotate(-85.7142857142857 1000 240)" font-size="30" fill="black"><a href="http://yago-knowledge.org/graph/&quot;1935-01-08&quot;^^xsd:date?relation=all&amp;inverse=1" style="fill:blue">
				"1935-01-08"<tspan style="font-size:80%; " dy="-0.3em">^^xsd:date</tspan></a></text><text x="515" y="234" transform="rotate(-85.7142857142857 1000 240)" font-size="30" fill="black">schema:birthDate</text><line x1="1093.0612244898" y1="240" x2="1500" y2="240" transform="rotate(102.857142857143 1000 240)" marker-end="url(#mblack)" stroke-width="3" stroke="black"/><text text-anchor="end" x="470" y="246" transform="rotate(-77.1428571428571 1000 240)" font-size="30" fill="black"><a href="http://yago-knowledge.org/graph/yago:Tupelo,_Mississippi" style="fill:blue"><title>yago:Tupelo,_Mississippi</title>yago:Tupelo,_Missis…
		</a></text><text x="515" y="234" transform="rotate(-77.1428571428571 1000 240)" font-size="30" fill="black"><title>schema:birthPlace</title>schema:birthPla…
		</text><line x1="1098.50340136054" y1="240" x2="1500" y2="240" transform="rotate(111.428571428571 1000 240)" marker-end="url(#mblack)" stroke-width="3" stroke="black"/><text text-anchor="end" x="470" y="246" transform="rotate(-68.5714285714286 1000 240)" font-size="30" fill="black"><a href="http://yago-knowledge.org/graph/yago:Lisa_Marie_Presley" style="fill:blue"><title>yago:Lisa_Marie_Presley</title>yago:Lisa_Marie_Pre…
		</a></text><text x="515" y="234" transform="rotate(-68.5714285714286 1000 240)" font-size="30" fill="black">schema:children</text><line x1="1106.66666666667" y1="240" x2="1500" y2="240" transform="rotate(120 1000 240)" marker-end="url(#mblack)" stroke-width="3" stroke="black"/><text text-anchor="end" x="470" y="246" transform="rotate(-60 1000 240)" font-size="30" fill="black"><a href="http://yago-knowledge.org/graph/yago:Graceland" style="fill:blue">yago:Graceland</a></text><text x="515" y="234" transform="rotate(-60 1000 240)" font-size="30" fill="black"><title>schema:deathPlace</title>schema:deathPla…
		</text><line x1="1117.55102040816" y1="240" x2="1500" y2="240" transform="rotate(128.571428571429 1000 240)" marker-end="url(#mblack)" stroke-width="3" stroke="black"/><text text-anchor="end" x="470" y="246" transform="rotate(-51.4285714285714 1000 240)" font-size="30" fill="black"><a href="http://yago-knowledge.org/graph/yago:Presley" style="fill:blue">yago:Presley</a></text><text x="515" y="234" transform="rotate(-51.4285714285714 1000 240)" font-size="30" fill="black"><title>schema:familyName</title>schema:familyNa…
		</text><line x1="1131.15646258503" y1="240" x2="1500" y2="240" transform="rotate(137.142857142857 1000 240)" marker-end="url(#mblack)" stroke-width="3" stroke="black"/><text text-anchor="end" x="470" y="246" transform="rotate(-42.8571428571429 1000 240)" font-size="30" fill="black"><a href="http://yago-knowledge.org/graph/yago:Elvis_(name)" style="fill:blue">yago:Elvis_(name)</a></text><text x="515" y="234" transform="rotate(-42.8571428571429 1000 240)" font-size="30" fill="black">schema:givenName</text><line x1="1147.48299319728" y1="240" x2="1500" y2="240" transform="rotate(145.714285714286 1000 240)" marker-end="url(#mblack)" stroke-width="3" stroke="black"/><text text-anchor="end" x="470" y="246" transform="rotate(-34.2857142857143 1000 240)" font-size="30" fill="black"><a href="http://yago-knowledge.org/graph/yago:English_language" style="fill:blue"><title>yago:English_language</title>yago:English_langua…
		</a></text><text x="515" y="234" transform="rotate(-34.2857142857143 1000 240)" font-size="30" fill="black"><title>schema:knowsLanguage</title>schema:knowsLan…
		</text><line x1="1166.5306122449" y1="240" x2="1500" y2="240" transform="rotate(154.285714285714 1000 240)" marker-end="url(#mblack)" stroke-width="3" stroke="black"/><text text-anchor="end" x="470" y="246" transform="rotate(-25.7142857142857 1000 240)" font-size="30" fill="black"><a href="http://yago-knowledge.org/graph/&quot;埃尔维斯&quot;@zh-hans?relation=all&amp;inverse=1" style="fill:blue">
				"埃尔维斯"@zh-hans</a><a href="http://yago-knowledge.org/graph/yago:Elvis_Presley?relation=schema:alternateName" style="fill:blue">  (+
				34)				
			</a></text><text x="515" y="234" transform="rotate(-25.7142857142857 1000 240)" font-size="30" fill="black"><title>schema:alternateName</title>schema:alternat…
		</text><line x1="1188.29931972789" y1="240" x2="1500" y2="240" transform="rotate(162.857142857143 1000 240)" marker-end="url(#mblack)" stroke-width="3" stroke="black"/><text text-anchor="end" x="470" y="246" transform="rotate(-17.1428571428571 1000 240)" font-size="30" fill="black"><a href="http://yago-knowledge.org/graph/&quot;amerikansk sanger&quot;@da?relation=all&amp;inverse=1" style="fill:blue">
				"amerikansk sanger"@da</a><a href="http://yago-knowledge.org/graph/yago:Elvis_Presley?relation=rdfs:comment" style="fill:blue">  (+
				46)				
			</a></text><text x="515" y="234" transform="rotate(-17.1428571428571 1000 240)" font-size="30" fill="black">rdfs:comment</text><line x1="1212.78911564626" y1="240" x2="1500" y2="240" transform="rotate(171.428571428571 1000 240)" marker-end="url(#mblack)" stroke-width="3" stroke="black"/><text text-anchor="end" x="470" y="246" transform="rotate(-8.571428571428571 1000 240)" font-size="30" fill="black"><a href="http://yago-knowledge.org/graph/&quot;Elvis Presley&quot;@af?relation=all&amp;inverse=1" style="fill:blue">
				"Elvis Presley"@af</a><a href="http://yago-knowledge.org/graph/yago:Elvis_Presley?relation=rdfs:label" style="fill:blue">  (+
				165)				
			</a></text><text x="515" y="234" transform="rotate(-8.571428571428571 1000 240)" font-size="30" fill="black">rdfs:label</text><line x1="1240" y1="240" x2="1500" y2="240" transform="rotate(180 1000 240)" marker-end="url(#mblack)" stroke-width="3" stroke="black"/><text text-anchor="end" x="470" y="246" transform="rotate(0 1000 240)" font-size="30" fill="black">wd:Q303<a href="http://yago-knowledge.org/graph/yago:Elvis_Presley?relation=owl:sameAs" style="fill:blue">  (+
				2)				
			</a></text><text x="515" y="234" transform="rotate(0 1000 240)" font-size="30" fill="black">owl:sameAs</text></svg>