<svg xmlns="http://www.w3.org/2000/svg" xmlns:xlink="http://www.w3.org/1999/xlink" xmlns:math="http://www.w3.org/2005/xpath-functions/math" viewBox="0 0 2000 1400"><defs><marker id="mblack" markerHeight="3" markerUnits="strokeWidth" markerWidth="4" orient="auto" refX="0" refY="5" viewBox="0 0 10 10"><path d="M 0 0 L 10 5 L 0 10 z" fill="black" stroke="black"/></marker><g id="taxonomy"><text x="30" y="30" font-size="30" fill="red "><a href="https://yago-knowledge.org/graph/schema:Thing">schema:Thing</a></text><text x="30" y="90" font-size="30" fill="red "><a href="https://yago-knowledge.org/graph/schema:Person">schema:Person</a></text><line stroke-width="3" opacity="0.2" stroke="black" x1="120" y1="60" x2="120" y2="45" marker-end="url(#mblack)"/><text x="30" y="150" font-size="30" fill="red "><a href="https://yago-knowledge.org/graph/yago:Worker">yago:Worker</a></text><line stroke-width="3" opacity="0.2" stroke="black" x1="120" y1="120" x2="120" y2="105" marker-end="url(#mblack)"/><text x="285" y="150" font-size="30" fill="blue"><a href="https://yago-knowledge.org/graph/yago:Film_People_Q34388953">yago:Film_People_Q34388953</a></text><line stroke-width="3" opacity="0.2" stroke="black" x1="375" y1="120" x2="120" y2="105" marker-end="url(#mblack)"/><text x="30" y="210" font-size="30" fill="red "><a href="https://yago-knowledge.org/graph/yago:Creator">yago:Creator</a></text><line stroke-width="3" opacity="0.2" stroke="black" x1="120" y1="180" x2="120" y2="165" marker-end="url(#mblack)"/><text x="300" y="210" font-size="30" fill="blue"><a href="https://yago-knowledge.org/graph/yago:Intellectual_And_Scientific_Professionals_Q110281945">yago:Intellectual_And_Scientific_Professionals_Q110281945</a></text><line stroke-width="3" opacity="0.2" stroke="black" x1="390" y1="180" x2="120" y2="165" marker-end="url(#mblack)"/><text x="30" y="270" font-size="30" fill="blue"><a href="https://yago-knowledge.org/graph/yago:Musician">yago:Musician</a></text><line stroke-width="3" opacity="0.2" stroke="black" x1="120" y1="240" x2="120" y2="225" marker-end="url(#mblack)"/><text x="315" y="270" font-size="30" fill="blue"><a href="https://yago-knowledge.org/graph/yago:Performing_Artist_Q713200">yago:Performing_Artist_Q713200</a></text><line stroke-width="3" opacity="0.2" stroke="black" x1="405" y1="240" x2="120" y2="225" marker-end="url(#mblack)"/><text x="855" y="270" font-size="30" fill="blue"><a href="https://yago-knowledge.org/graph/yago:Legal_U002C__Social_And_Cultural_Professionals_Q108289030">yago:Legal_U002C__Social_And_Cultural_Professionals_Q108289030</a></text><line stroke-width="3" opacity="0.2" stroke="black" x1="945" y1="240" x2="390" y2="225" marker-end="url(#mblack)"/><text x="30" y="330" font-size="30" fill="blue"><a href="https://yago-knowledge.org/graph/yago:Vocalist_Q2643890">yago:Vocalist_Q2643890</a></text><line stroke-width="3" opacity="0.2" stroke="black" x1="120" y1="300" x2="120" y2="285" marker-end="url(#mblack)"/><text x="450" y="330" font-size="30" fill="blue"><a href="https://yago-knowledge.org/graph/yago:Creative_And_Performing_Artist_Q108289408">yago:Creative_And_Performing_Artist_Q108289408</a></text><line stroke-width="3" opacity="0.2" stroke="black" x1="540" y1="300" x2="945" y2="285" marker-end="url(#mblack)"/><text x="30" y="390" font-size="30" fill="blue"><a href="https://yago-knowledge.org/graph/yago:Actor">yago:Actor</a></text><line stroke-width="3" opacity="0.2" stroke="black" x1="120" y1="360" x2="405" y2="285" marker-end="url(#mblack)"/><line stroke-width="3" opacity="0.2" stroke="black" x1="120" y1="360" x2="540" y2="345" marker-end="url(#mblack)"/><text x="270" y="390" font-size="30" fill="blue"><a href="https://yago-knowledge.org/graph/yago:Singer">yago:Singer</a></text><line stroke-width="3" opacity="0.2" stroke="black" x1="360" y1="360" x2="120" y2="345" marker-end="url(#mblack)"/><line stroke-width="3" opacity="0.2" stroke="black" x1="360" y1="360" x2="540" y2="345" marker-end="url(#mblack)"/><text x="30" y="450" font-size="30" fill="blue"><a href="https://yago-knowledge.org/graph/yago:Film_actor">yago:Film_actor</a></text><line stroke-width="3" opacity="0.2" stroke="black" x1="120" y1="420" x2="120" y2="405" marker-end="url(#mblack)"/><line stroke-width="3" opacity="0.2" stroke="black" x1="120" y1="420" x2="375" y2="165" marker-end="url(#mblack)"/></g></defs><use href="#taxonomy" x="107.5" y="0" transform="scale(1)"/><a href="https://yago-knowledge.org/resource/yago:Elvis_Presley"><text text-anchor="middle" x="1000" y="546" font-size="30" fill="blue">yago:Elvis_Presley</text></a><line stroke-width="3" opacity="0.2" stroke="black" x1="1000" y1="510" x2="467.5" y2="405" marker-end="url(#mblack)"/><line stroke-width="3" opacity="0.2" stroke="black" x1="1000" y1="510" x2="227.5" y2="465" marker-end="url(#mblack)"/><line x1="1240" y1="540" x2="1500" y2="540" transform="rotate(0 1000 540)" marker-end="url(#mblack)" stroke-width="3" stroke="black"/><text x="1530" y="549" transform="rotate(0 1000 540)" font-size="30"><a href="https://yago-knowledge.org/graph/&quot;Elvis Presley&quot;@az?relation=all&amp;inverse=1" style="fill:blue">
				"Elvis Presley"@az</a><a href="https://yago-knowledge.org/graph/yago:Elvis_Presley?relation=schema:alternateName" style="fill:blue">  (+				
				128)				
			</a></text><text text-anchor="end" x="1485" y="534" transform="rotate(0 1000 540)" font-size="30"><title>schema:alternateName</title>schema:alternat…
		</text><line x1="1210.08310249307" y1="540" x2="1500" y2="540" transform="rotate(9.473684210526315 1000 540)" marker-end="url(#mblack)" stroke-width="3" stroke="black"/><text x="1530" y="549" transform="rotate(9.473684210526315 1000 540)" font-size="30"><a href="https://yago-knowledge.org/graph/yago:Humes_Preparatory_Academy_Middle_School" style="fill:blue"><title>yago:Humes_Preparatory_Academy_Middle_School</title>yago:Humes_Preparat…
		</a></text><text text-anchor="end" x="1485" y="534" transform="rotate(9.473684210526315 1000 540)" font-size="30">schema:alumniOf</text><line x1="1183.49030470914" y1="540" x2="1500" y2="540" transform="rotate(18.9473684210526 1000 540)" marker-end="url(#mblack)" stroke-width="3" stroke="black"/><text x="1530" y="549" transform="rotate(18.9473684210526 1000 540)" font-size="30"><a href="https://yago-knowledge.org/graph/yago:Grammy_Lifetime_Achievement_Award" style="fill:blue"><title>yago:Grammy_Lifetime_Achievement_Award</title>yago:Grammy_Lifetim…
		</a><a href="https://yago-knowledge.org/graph/yago:Elvis_Presley?relation=schema:award" style="fill:blue">  (+				
				3)				
			</a></text><text text-anchor="end" x="1485" y="534" transform="rotate(18.9473684210526 1000 540)" font-size="30">schema:award</text><line x1="1160.2216066482" y1="540" x2="1500" y2="540" transform="rotate(28.4210526315789 1000 540)" marker-end="url(#mblack)" stroke-width="3" stroke="black"/><text x="1530" y="549" transform="rotate(28.4210526315789 1000 540)" font-size="30"><a href="https://yago-knowledge.org/graph/&quot;1935-01-08T00:00:00.000Z&quot;^^xsd:dateTime?relation=all&amp;inverse=1" style="fill:blue">
				"<title>1935-01-08T00:00:00.000Z</title>1935-01-08T00:00:00…
		"<tspan style="font-size:80%; " dy="-0.3em">^^xsd:dateTime</tspan></a></text><text text-anchor="end" x="1485" y="534" transform="rotate(28.4210526315789 1000 540)" font-size="30">schema:birthDate</text><line x1="1140.27700831025" y1="540" x2="1500" y2="540" transform="rotate(37.8947368421053 1000 540)" marker-end="url(#mblack)" stroke-width="3" stroke="black"/><text x="1530" y="549" transform="rotate(37.8947368421053 1000 540)" font-size="30"><a href="https://yago-knowledge.org/graph/yago:Tupelo_u002C__Mississippi" style="fill:blue"><title>yago:Tupelo_u002C__Mississippi</title>yago:Tupelo_u002C__…
		</a></text><text text-anchor="end" x="1485" y="534" transform="rotate(37.8947368421053 1000 540)" font-size="30"><title>schema:birthPlace</title>schema:birthPla…
		</text><line x1="1123.65650969529" y1="540" x2="1500" y2="540" transform="rotate(47.3684210526316 1000 540)" marker-end="url(#mblack)" stroke-width="3" stroke="black"/><text x="1530" y="549" transform="rotate(47.3684210526316 1000 540)" font-size="30"><a href="https://yago-knowledge.org/graph/yago:Lisa_Marie_Presley" style="fill:blue"><title>yago:Lisa_Marie_Presley</title>yago:Lisa_Marie_Pre…
		</a></text><text text-anchor="end" x="1485" y="534" transform="rotate(47.3684210526316 1000 540)" font-size="30">schema:children</text><line x1="1110.36011080332" y1="540" x2="1500" y2="540" transform="rotate(56.8421052631579 1000 540)" marker-end="url(#mblack)" stroke-width="3" stroke="black"/><text x="1530" y="549" transform="rotate(56.8421052631579 1000 540)" font-size="30"><a href="https://yago-knowledge.org/graph/&quot;1977-08-16T00:00:00.000Z&quot;^^xsd:dateTime?relation=all&amp;inverse=1" style="fill:blue">
				"<title>1977-08-16T00:00:00.000Z</title>1977-08-16T00:00:00…
		"<tspan style="font-size:80%; " dy="-0.3em">^^xsd:dateTime</tspan></a></text><text text-anchor="end" x="1485" y="534" transform="rotate(56.8421052631579 1000 540)" font-size="30">schema:deathDate</text><line x1="1100.38781163435" y1="540" x2="1500" y2="540" transform="rotate(66.3157894736842 1000 540)" marker-end="url(#mblack)" stroke-width="3" stroke="black"/><text x="1530" y="549" transform="rotate(66.3157894736842 1000 540)" font-size="30"><a href="https://yago-knowledge.org/graph/yago:Memphis_u002C__Tennessee" style="fill:blue"><title>yago:Memphis_u002C__Tennessee</title>yago:Memphis_u002C_…
		</a></text><text text-anchor="end" x="1485" y="534" transform="rotate(66.3157894736842 1000 540)" font-size="30"><title>schema:deathPlace</title>schema:deathPla…
		</text><line x1="1093.73961218837" y1="540" x2="1500" y2="540" transform="rotate(75.7894736842105 1000 540)" marker-end="url(#mblack)" stroke-width="3" stroke="black"/><text x="1530" y="549" transform="rotate(75.7894736842105 1000 540)" font-size="30"><a href="https://yago-knowledge.org/graph/yago:Male_gender" style="fill:blue">yago:Male_gender</a></text><text text-anchor="end" x="1485" y="534" transform="rotate(75.7894736842105 1000 540)" font-size="30">schema:gender</text><line x1="1090.41551246537" y1="540" x2="1500" y2="540" transform="rotate(85.2631578947368 1000 540)" marker-end="url(#mblack)" stroke-width="3" stroke="black"/><text x="1530" y="549" transform="rotate(85.2631578947368 1000 540)" font-size="30"><a href="https://yago-knowledge.org/graph/yago:Graceland" style="fill:blue">yago:Graceland</a></text><text text-anchor="end" x="1485" y="534" transform="rotate(85.2631578947368 1000 540)" font-size="30"><title>schema:homeLocation</title>schema:homeLoca…
		</text><line x1="1090.41551246537" y1="540" x2="1500" y2="540" transform="rotate(94.7368421052632 1000 540)" marker-end="url(#mblack)" stroke-width="3" stroke="black"/><text text-anchor="end" x="470" y="546" transform="rotate(-85.2631578947368 1000 540)" font-size="30" fill="black"><a href="http://commons.wikimedia.org/wiki/Special:FilePath/Elvis%20Presley%20promoting%20Jailhouse%20Rock.jpg" style="fill:blue"><title>http://commons.wikimedia.org/wiki/Special:FilePath/Elvis%20Presley%20promoting%20Jailhouse%20Rock.jpg</title>http://commons.wiki…
		</a></text><text x="515" y="534" transform="rotate(-85.2631578947368 1000 540)" font-size="30" fill="black">schema:image</text><line x1="1093.73961218837" y1="540" x2="1500" y2="540" transform="rotate(104.210526315789 1000 540)" marker-end="url(#mblack)" stroke-width="3" stroke="black"/><text text-anchor="end" x="470" y="546" transform="rotate(-75.7894736842105 1000 540)" font-size="30" fill="black"><a href="https://yago-knowledge.org/graph/yago:English_language_generic_instance" style="fill:blue"><title>yago:English_language_generic_instance</title>yago:English_langua…
		</a></text><text x="515" y="534" transform="rotate(-75.7894736842105 1000 540)" font-size="30" fill="black"><title>schema:knowsLanguage</title>schema:knowsLan…
		</text><line x1="1100.38781163435" y1="540" x2="1500" y2="540" transform="rotate(113.684210526316 1000 540)" marker-end="url(#mblack)" stroke-width="3" stroke="black"/><text text-anchor="end" x="470" y="546" transform="rotate(-66.3157894736842 1000 540)" font-size="30" fill="black"><a href="https://ab.wikipedia.org/wiki/%D0%9F%D1%80%D0%B5%D1%81%D0%BB%D0%B8,_%D0%95%D0%BB%D0%B2%D0%B8%D1%81" style="fill:blue"><title>https://ab.wikipedia.org/wiki/%D0%9F%D1%80%D0%B5%D1%81%D0%BB%D0%B8,_%D0%95%D0%BB%D0%B2%D0%B8%D1%81</title>https://ab.wikipedi…
		</a><a href="https://yago-knowledge.org/graph/yago:Elvis_Presley?relation=schema:mainEntityOfPage" style="fill:blue">  (+				
				197)				
			</a></text><text x="515" y="534" transform="rotate(-66.3157894736842 1000 540)" font-size="30" fill="black"><title>schema:mainEntityOfPage</title>schema:mainEnti…
		</text><line x1="1110.36011080332" y1="540" x2="1500" y2="540" transform="rotate(123.157894736842 1000 540)" marker-end="url(#mblack)" stroke-width="3" stroke="black"/><text text-anchor="end" x="470" y="546" transform="rotate(-56.8421052631579 1000 540)" font-size="30" fill="black"><a href="https://yago-knowledge.org/graph/yago:United_States" style="fill:blue">yago:United_States</a></text><text x="515" y="534" transform="rotate(-56.8421052631579 1000 540)" font-size="30" fill="black"><title>schema:nationality</title>schema:national…
		</text><line x1="1123.65650969529" y1="540" x2="1500" y2="540" transform="rotate(132.631578947368 1000 540)" marker-end="url(#mblack)" stroke-width="3" stroke="black"/><text text-anchor="end" x="470" y="546" transform="rotate(-47.3684210526316 1000 540)" font-size="30" fill="black"><a href="https://yago-knowledge.org/graph/&quot;/m/02jq1&quot;?relation=all&amp;inverse=1" style="fill:blue">
				"/m/02jq1"</a><a href="https://yago-knowledge.org/graph/yago:Elvis_Presley?relation=schema:sameAs" style="fill:blue">  (+				
				1)				
			</a></text><text x="515" y="534" transform="rotate(-47.3684210526316 1000 540)" font-size="30" fill="black">schema:sameAs</text><line x1="1140.27700831025" y1="540" x2="1500" y2="540" transform="rotate(142.105263157895 1000 540)" marker-end="url(#mblack)" stroke-width="3" stroke="black"/><text text-anchor="end" x="470" y="546" transform="rotate(-37.8947368421053 1000 540)" font-size="30" fill="black"><a href="https://yago-knowledge.org/graph/yago:Priscilla_Presley" style="fill:blue"><title>yago:Priscilla_Presley</title>yago:Priscilla_Pres…
		</a></text><text x="515" y="534" transform="rotate(-37.8947368421053 1000 540)" font-size="30" fill="black">schema:spouse</text><line x1="1160.2216066482" y1="540" x2="1500" y2="540" transform="rotate(151.578947368421 1000 540)" marker-end="url(#mblack)" stroke-width="3" stroke="black"/><text text-anchor="end" x="470" y="546" transform="rotate(-28.4210526315789 1000 540)" font-size="30" fill="black"><a href="http://www.elvis.com" style="fill:blue">http://www.elvis.com</a><a href="https://yago-knowledge.org/graph/yago:Elvis_Presley?relation=schema:url" style="fill:blue">  (+				
				1)				
			</a></text><text x="515" y="534" transform="rotate(-28.4210526315789 1000 540)" font-size="30" fill="black">schema:url</text><line x1="1183.49030470914" y1="540" x2="1500" y2="540" transform="rotate(161.052631578947 1000 540)" marker-end="url(#mblack)" stroke-width="3" stroke="black"/><text text-anchor="end" x="470" y="546" transform="rotate(-18.9473684210526 1000 540)" font-size="30" fill="black"><a href="https://yago-knowledge.org/graph/&quot;O nyɛla USA yiliyiinda&quot;@dag?relation=all&amp;inverse=1" style="fill:blue">
				"<title>O nyɛla USA yiliyiinda</title>O nyɛla USA yiliyii…
		"@dag</a><a href="https://yago-knowledge.org/graph/yago:Elvis_Presley?relation=rdfs:comment" style="fill:blue">  (+				
				66)				
			</a></text><text x="515" y="534" transform="rotate(-18.9473684210526 1000 540)" font-size="30" fill="black">rdfs:comment</text><line x1="1210.08310249307" y1="540" x2="1500" y2="540" transform="rotate(170.526315789474 1000 540)" marker-end="url(#mblack)" stroke-width="3" stroke="black"/><text text-anchor="end" x="470" y="546" transform="rotate(-9.473684210526315 1000 540)" font-size="30" fill="black"><a href="https://yago-knowledge.org/graph/&quot;Elvis Presley&quot;@ig?relation=all&amp;inverse=1" style="fill:blue">
				"Elvis Presley"@ig</a><a href="https://yago-knowledge.org/graph/yago:Elvis_Presley?relation=rdfs:label" style="fill:blue">  (+				
				190)				
			</a></text><text x="515" y="534" transform="rotate(-9.473684210526315 1000 540)" font-size="30" fill="black">rdfs:label</text><line x1="1240" y1="540" x2="1500" y2="540" transform="rotate(180 1000 540)" marker-end="url(#mblack)" stroke-width="3" stroke="black"/><text text-anchor="end" x="470" y="546" transform="rotate(0 1000 540)" font-size="30" fill="black">wd:Q303</text><text x="515" y="534" transform="rotate(0 1000 540)" font-size="30" fill="black">owl:sameAs</text></svg>
    