<svg xmlns="http://www.w3.org/2000/svg" xmlns:xlink="http://www.w3.org/1999/xlink" xmlns:math="http://www.w3.org/2005/xpath-functions/math" viewBox="0 0 2000 1400"><defs><marker id="mblack" markerHeight="3" markerUnits="strokeWidth" markerWidth="4" orient="auto" refX="0" refY="5" viewBox="0 0 10 10"><path d="M 0 0 L 10 5 L 0 10 z" fill="black" stroke="black"/></marker><g id="taxonomy"><text x="30" y="30" font-size="30" fill="red "><a href="http://yago.r2.enst.fr/graph/schema:Thing">schema:Thing</a></text><text x="30" y="90" font-size="30" fill="red "><a href="http://yago.r2.enst.fr/graph/schema:Person">schema:Person</a></text><line stroke-width="3" opacity="0.2" stroke="black" x1="120" y1="60" x2="120" y2="45" marker-end="url(#mblack)"/><text x="315" y="90" font-size="30" fill="blue"><a href="http://yago.r2.enst.fr/graph/yago:Individual_Q23958946">yago:Individual_Q23958946</a></text><line stroke-width="3" opacity="0.2" stroke="black" x1="405" y1="60" x2="120" y2="45" marker-end="url(#mblack)"/><text x="780" y="90" font-size="30" fill="blue"><a href="http://yago.r2.enst.fr/graph/yago:Subject_(philosophy)">yago:Subject_(philosophy)</a></text><line stroke-width="3" opacity="0.2" stroke="black" x1="870" y1="60" x2="120" y2="45" marker-end="url(#mblack)"/><text x="30" y="150" font-size="30" fill="blue"><a href="http://yago.r2.enst.fr/graph/yago:Kin_Q12758374">yago:Kin_Q12758374</a></text><line stroke-width="3" opacity="0.2" stroke="black" x1="120" y1="120" x2="120" y2="105" marker-end="url(#mblack)"/><text x="390" y="150" font-size="30" fill="blue"><a href="http://yago.r2.enst.fr/graph/yago:Agent_Q24229398">yago:Agent_Q24229398</a></text><line stroke-width="3" opacity="0.2" stroke="black" x1="480" y1="120" x2="405" y2="105" marker-end="url(#mblack)"/><text x="30" y="210" font-size="30" fill="blue"><a href="http://yago.r2.enst.fr/graph/yago:First-degree_relatives">yago:First-degree_relatives</a></text><line stroke-width="3" opacity="0.2" stroke="black" x1="120" y1="180" x2="120" y2="165" marker-end="url(#mblack)"/><text x="525" y="210" font-size="30" fill="blue"><a href="http://yago.r2.enst.fr/graph/yago:_Q26720107">yago:_Q26720107</a></text><line stroke-width="3" opacity="0.2" stroke="black" x1="615" y1="180" x2="480" y2="165" marker-end="url(#mblack)"/><line stroke-width="3" opacity="0.2" stroke="black" x1="615" y1="180" x2="870" y2="105" marker-end="url(#mblack)"/><text x="30" y="270" font-size="30" fill="blue"><a href="http://yago.r2.enst.fr/graph/yago:Sibling">yago:Sibling</a></text><line stroke-width="3" opacity="0.2" stroke="black" x1="120" y1="240" x2="120" y2="225" marker-end="url(#mblack)"/><text x="300" y="270" font-size="30" fill="blue"><a href="http://yago.r2.enst.fr/graph/yago:Legal_person">yago:Legal_person</a></text><line stroke-width="3" opacity="0.2" stroke="black" x1="390" y1="240" x2="615" y2="225" marker-end="url(#mblack)"/><line stroke-width="3" opacity="0.2" stroke="black" x1="390" y1="240" x2="480" y2="165" marker-end="url(#mblack)"/><line stroke-width="3" opacity="0.2" stroke="black" x1="390" y1="240" x2="870" y2="105" marker-end="url(#mblack)"/><text x="30" y="330" font-size="30" fill="blue"><a href="http://yago.r2.enst.fr/graph/yago:Twin">yago:Twin</a></text><line stroke-width="3" opacity="0.2" stroke="black" x1="120" y1="300" x2="120" y2="285" marker-end="url(#mblack)"/><text x="255" y="330" font-size="30" fill="blue"><a href="http://yago.r2.enst.fr/graph/yago:Natural_person">yago:Natural_person</a></text><line stroke-width="3" opacity="0.2" stroke="black" x1="345" y1="300" x2="390" y2="285" marker-end="url(#mblack)"/><text x="30" y="390" font-size="30" fill="blue"><a href="http://yago.r2.enst.fr/graph/yago:Human">yago:Human</a></text><line stroke-width="3" opacity="0.2" stroke="black" x1="120" y1="360" x2="120" y2="105" marker-end="url(#mblack)"/><line stroke-width="3" opacity="0.2" stroke="black" x1="120" y1="360" x2="345" y2="345" marker-end="url(#mblack)"/></g></defs><use href="#taxonomy" x="422.5" y="0" transform="scale(1)"/><text text-anchor="middle" x="1000" y="486" font-size="30" fill="black">yago:Elvis_Presley</text><line stroke-width="3" opacity="0.2" stroke="black" x1="1000" y1="450" x2="542.5" y2="345" marker-end="url(#mblack)"/><line stroke-width="3" opacity="0.2" stroke="black" x1="1000" y1="450" x2="542.5" y2="405" marker-end="url(#mblack)"/><line x1="1240" y1="480" x2="1500" y2="480" transform="rotate(0 1000 480)" marker-end="url(#mblack)" stroke-width="3" stroke="black"/><text x="1530" y="489" transform="rotate(0 1000 480)" font-size="30"><a href="http://yago.r2.enst.fr/graph/yago:Humes_Preparatory_Academy_Middle_School" style="fill:blue"><title>yago:Humes_Preparatory_Academy_Middle_School</title>yago:Humes_Preparat…
		</a></text><text text-anchor="end" x="1485" y="474" transform="rotate(0 1000 480)" font-size="30">schema:alumniOf</text><line x1="1211.5" y1="480" x2="1500" y2="480" transform="rotate(9 1000 480)" marker-end="url(#mblack)" stroke-width="3" stroke="black"/><text x="1530" y="489" transform="rotate(9 1000 480)" font-size="30"><a href="http://yago.r2.enst.fr/graph/yago:Honorary_citizen_of_Budapest_Q56479277" style="fill:blue"><title>yago:Honorary_citizen_of_Budapest_Q56479277</title>yago:Honorary_citiz…
		</a><a href="http://yago.r2.enst.fr/graph/yago:Elvis_Presley?relation=schema:award" style="fill:blue">  (+				
				3)				
			</a></text><text text-anchor="end" x="1485" y="474" transform="rotate(9 1000 480)" font-size="30">schema:award</text><line x1="1186" y1="480" x2="1500" y2="480" transform="rotate(18 1000 480)" marker-end="url(#mblack)" stroke-width="3" stroke="black"/><text x="1530" y="489" transform="rotate(18 1000 480)" font-size="30"><a href="http://commons.wikimedia.org/wiki/Special:FilePath/Elvis%20Presley%20promoting%20Jailhouse%20Rock.jpg" style="fill:blue"><title>http://commons.wikimedia.org/wiki/Special:FilePath/Elvis%20Presley%20promoting%20Jailhouse%20Rock.jpg</title>http://commons.wiki…
		</a></text><text text-anchor="end" x="1485" y="474" transform="rotate(18 1000 480)" font-size="30">schema:image</text><line x1="1163.5" y1="480" x2="1500" y2="480" transform="rotate(27 1000 480)" marker-end="url(#mblack)" stroke-width="3" stroke="black"/><text x="1530" y="489" transform="rotate(27 1000 480)" font-size="30"><a href="http://yago.r2.enst.fr/graph/&quot;1935-01-08&quot;^^xsd:date?relation=all&amp;inverse=1" style="fill:blue">
				"1935-01-08"<tspan style="font-size:80%; " dy="-0.3em">^^xsd:date</tspan></a></text><text text-anchor="end" x="1485" y="474" transform="rotate(27 1000 480)" font-size="30">schema:birthDate</text><line x1="1144" y1="480" x2="1500" y2="480" transform="rotate(36 1000 480)" marker-end="url(#mblack)" stroke-width="3" stroke="black"/><text x="1530" y="489" transform="rotate(36 1000 480)" font-size="30"><a href="http://yago.r2.enst.fr/graph/yago:Tupelo,_Mississippi" style="fill:blue"><title>yago:Tupelo,_Mississippi</title>yago:Tupelo,_Missis…
		</a></text><text text-anchor="end" x="1485" y="474" transform="rotate(36 1000 480)" font-size="30"><title>schema:birthPlace</title>schema:birthPla…
		</text><line x1="1127.5" y1="480" x2="1500" y2="480" transform="rotate(45 1000 480)" marker-end="url(#mblack)" stroke-width="3" stroke="black"/><text x="1530" y="489" transform="rotate(45 1000 480)" font-size="30"><a href="http://yago.r2.enst.fr/graph/yago:Lisa_Marie_Presley" style="fill:blue"><title>yago:Lisa_Marie_Presley</title>yago:Lisa_Marie_Pre…
		</a></text><text text-anchor="end" x="1485" y="474" transform="rotate(45 1000 480)" font-size="30">schema:children</text><line x1="1114" y1="480" x2="1500" y2="480" transform="rotate(54 1000 480)" marker-end="url(#mblack)" stroke-width="3" stroke="black"/><text x="1530" y="489" transform="rotate(54 1000 480)" font-size="30"><a href="http://yago.r2.enst.fr/graph/&quot;1977-08-16&quot;^^xsd:date?relation=all&amp;inverse=1" style="fill:blue">
				"1977-08-16"<tspan style="font-size:80%; " dy="-0.3em">^^xsd:date</tspan></a></text><text text-anchor="end" x="1485" y="474" transform="rotate(54 1000 480)" font-size="30">schema:deathDate</text><line x1="1103.5" y1="480" x2="1500" y2="480" transform="rotate(63 1000 480)" marker-end="url(#mblack)" stroke-width="3" stroke="black"/><text x="1530" y="489" transform="rotate(63 1000 480)" font-size="30"><a href="http://yago.r2.enst.fr/graph/yago:Graceland" style="fill:blue">yago:Graceland</a></text><text text-anchor="end" x="1485" y="474" transform="rotate(63 1000 480)" font-size="30"><title>schema:deathPlace</title>schema:deathPla…
		</text><line x1="1096" y1="480" x2="1500" y2="480" transform="rotate(72 1000 480)" marker-end="url(#mblack)" stroke-width="3" stroke="black"/><text x="1530" y="489" transform="rotate(72 1000 480)" font-size="30"><a href="http://yago.r2.enst.fr/graph/yago:Presley" style="fill:blue">yago:Presley</a></text><text text-anchor="end" x="1485" y="474" transform="rotate(72 1000 480)" font-size="30"><title>schema:familyName</title>schema:familyNa…
		</text><line x1="1091.5" y1="480" x2="1500" y2="480" transform="rotate(81 1000 480)" marker-end="url(#mblack)" stroke-width="3" stroke="black"/><text x="1530" y="489" transform="rotate(81 1000 480)" font-size="30"><a href="http://yago.r2.enst.fr/graph/yago:Elvis_(name)" style="fill:blue">yago:Elvis_(name)</a></text><text text-anchor="end" x="1485" y="474" transform="rotate(81 1000 480)" font-size="30">schema:givenName</text><line x1="1090" y1="480" x2="1500" y2="480" transform="rotate(90 1000 480)" marker-end="url(#mblack)" stroke-width="3" stroke="black"/><text x="1530" y="489" transform="rotate(90 1000 480)" font-size="30"><a href="http://yago.r2.enst.fr/graph/yago:Film_actor_Q10800557" style="fill:blue"><title>yago:Film_actor_Q10800557</title>yago:Film_actor_Q10…
		</a><a href="http://yago.r2.enst.fr/graph/yago:Elvis_Presley?relation=schema:hasOccupation" style="fill:blue">  (+				
				5)				
			</a></text><text text-anchor="end" x="1485" y="474" transform="rotate(90 1000 480)" font-size="30"><title>schema:hasOccupation</title>schema:hasOccup…
		</text><line x1="1091.5" y1="480" x2="1500" y2="480" transform="rotate(99 1000 480)" marker-end="url(#mblack)" stroke-width="3" stroke="black"/><text text-anchor="end" x="470" y="486" transform="rotate(-81 1000 480)" font-size="30" fill="black"><a href="http://yago.r2.enst.fr/graph/yago:Graceland" style="fill:blue">yago:Graceland</a></text><text x="515" y="474" transform="rotate(-81 1000 480)" font-size="30" fill="black"><title>schema:homeLocation</title>schema:homeLoca…
		</text><line x1="1096" y1="480" x2="1500" y2="480" transform="rotate(108 1000 480)" marker-end="url(#mblack)" stroke-width="3" stroke="black"/><text text-anchor="end" x="470" y="486" transform="rotate(-72 1000 480)" font-size="30" fill="black"><a href="http://yago.r2.enst.fr/graph/yago:English_language" style="fill:blue"><title>yago:English_language</title>yago:English_langua…
		</a></text><text x="515" y="474" transform="rotate(-72 1000 480)" font-size="30" fill="black"><title>schema:knowsLanguage</title>schema:knowsLan…
		</text><line x1="1103.5" y1="480" x2="1500" y2="480" transform="rotate(117 1000 480)" marker-end="url(#mblack)" stroke-width="3" stroke="black"/><text text-anchor="end" x="470" y="486" transform="rotate(-63 1000 480)" font-size="30" fill="black"><a href="http://yago.r2.enst.fr/graph/yago:United_States" style="fill:blue">yago:United_States</a></text><text x="515" y="474" transform="rotate(-63 1000 480)" font-size="30" fill="black"><title>schema:nationality</title>schema:national…
		</text><line x1="1114" y1="480" x2="1500" y2="480" transform="rotate(126 1000 480)" marker-end="url(#mblack)" stroke-width="3" stroke="black"/><text text-anchor="end" x="470" y="486" transform="rotate(-54 1000 480)" font-size="30" fill="black"><a href="http://yago.r2.enst.fr/graph/yago:Gladys_Presley_Q12363015" style="fill:blue"><title>yago:Gladys_Presley_Q12363015</title>yago:Gladys_Presley…
		</a><a href="http://yago.r2.enst.fr/graph/yago:Elvis_Presley?relation=schema:parent" style="fill:blue">  (+				
				1)				
			</a></text><text x="515" y="474" transform="rotate(-54 1000 480)" font-size="30" fill="black">schema:parent</text><line x1="1127.5" y1="480" x2="1500" y2="480" transform="rotate(135 1000 480)" marker-end="url(#mblack)" stroke-width="3" stroke="black"/><text text-anchor="end" x="470" y="486" transform="rotate(-45 1000 480)" font-size="30" fill="black"><a href="http://yago.r2.enst.fr/graph/yago:Priscilla_Presley" style="fill:blue"><title>yago:Priscilla_Presley</title>yago:Priscilla_Pres…
		</a></text><text x="515" y="474" transform="rotate(-45 1000 480)" font-size="30" fill="black">schema:spouse</text><line x1="1144" y1="480" x2="1500" y2="480" transform="rotate(144 1000 480)" marker-end="url(#mblack)" stroke-width="3" stroke="black"/><text text-anchor="end" x="470" y="486" transform="rotate(-36 1000 480)" font-size="30" fill="black"><a href="http://yago.r2.enst.fr/graph/&quot;Elvis Aaron Presley&quot;@ast?relation=all&amp;inverse=1" style="fill:blue">
				"Elvis Aaron Presley"@ast</a><a href="http://yago.r2.enst.fr/graph/yago:Elvis_Presley?relation=schema:alternateName" style="fill:blue">  (+				
				29)				
			</a></text><text x="515" y="474" transform="rotate(-36 1000 480)" font-size="30" fill="black"><title>schema:alternateName</title>schema:alternat…
		</text><line x1="1163.5" y1="480" x2="1500" y2="480" transform="rotate(153 1000 480)" marker-end="url(#mblack)" stroke-width="3" stroke="black"/><text text-anchor="end" x="470" y="486" transform="rotate(-27 1000 480)" font-size="30" fill="black"><a href="https://af.wikipedia.org/wiki/Elvis_Presley" style="fill:blue"><title>https://af.wikipedia.org/wiki/Elvis_Presley</title>https://af.wikipedi…
		</a><a href="http://yago.r2.enst.fr/graph/yago:Elvis_Presley?relation=schema:sameAs" style="fill:blue">  (+				
				153)				
			</a></text><text x="515" y="474" transform="rotate(-27 1000 480)" font-size="30" fill="black">schema:sameAs</text><line x1="1186" y1="480" x2="1500" y2="480" transform="rotate(162 1000 480)" marker-end="url(#mblack)" stroke-width="3" stroke="black"/><text text-anchor="end" x="470" y="486" transform="rotate(-18 1000 480)" font-size="30" fill="black"><a href="http://yago.r2.enst.fr/graph/&quot;cantante estauxunidense&quot;@ast?relation=all&amp;inverse=1" style="fill:blue">
				"<title>cantante estauxunidense</title>cantante estauxunid…
		"@ast</a><a href="http://yago.r2.enst.fr/graph/yago:Elvis_Presley?relation=rdfs:comment" style="fill:blue">  (+				
				44)				
			</a></text><text x="515" y="474" transform="rotate(-18 1000 480)" font-size="30" fill="black">rdfs:comment</text><line x1="1211.5" y1="480" x2="1500" y2="480" transform="rotate(171 1000 480)" marker-end="url(#mblack)" stroke-width="3" stroke="black"/><text text-anchor="end" x="470" y="486" transform="rotate(-9 1000 480)" font-size="30" fill="black"><a href="http://yago.r2.enst.fr/graph/&quot;Elvis Presley&quot;@nl?relation=all&amp;inverse=1" style="fill:blue">
				"Elvis Presley"@nl</a><a href="http://yago.r2.enst.fr/graph/yago:Elvis_Presley?relation=rdfs:label" style="fill:blue">  (+				
				165)				
			</a></text><text x="515" y="474" transform="rotate(-9 1000 480)" font-size="30" fill="black">rdfs:label</text><line x1="1240" y1="480" x2="1500" y2="480" transform="rotate(180 1000 480)" marker-end="url(#mblack)" stroke-width="3" stroke="black"/><text text-anchor="end" x="470" y="486" transform="rotate(0 1000 480)" font-size="30" fill="black">wd:Q303<a href="http://yago.r2.enst.fr/graph/yago:Elvis_Presley?relation=owl:sameAs" style="fill:blue">  (+				
				2)				
			</a></text><text x="515" y="474" transform="rotate(0 1000 480)" font-size="30" fill="black">owl:sameAs</text></svg>