<svg version="1.1" class="logo telecom-paris" xmlns="http://www.w3.org/2000/svg" xmlns:xlink="http://www.w3.org/1999/xlink" x="0px" y="0px" viewBox="0 0 174.8 269.8" style="enable-background:new 0 0 174.8 269.8;" xml:space="preserve">
<style type="text/css">
	.telecom-paris .st0{fill:#FFFFFF;}
	.telecom-paris .st1{fill:none;}
	.telecom-paris .st2{fill:#BF1238;}
	.telecom-paris .st3{fill:#C6C6C6;}
</style>
<rect x="-0.1" y="0.1" class="st0" width="174.8" height="175.5"></rect>
<g>
	<rect x="0.1" class="st1" width="174.8" height="269.8"></rect>
	<g>
		<g>
			<g>
				<g>
					<g>
						<path d="M28.6,239.8c-6.7-4.6-10.2-7-13.6-9.5c-1.6,2.7-2.6,5.8-2.6,9.2c0,6.1,3.1,11.5,7.7,14.6
							C22.1,250.3,24.8,246,28.6,239.8z"></path>
						<path d="M46,243.4c-2.7,2.9-7.1,3.3-10.3,1.4c-0.6-0.4-4.9-3.4-4.9-3.4c-4.8,6.8-7.2,10.2-9.9,13.3c2.7,1.6,5.8,2.6,9.2,2.6
							c9.5,0,17.3-7.5,17.7-16.9C47.5,241.4,46.9,242.5,46,243.4z"></path>
						<path d="M42.8,233.4c-0.6-0.4-4.4-2.9-4.4-2.9c-3.1,4.6-3.6,5.3-6,8.7c0,0,4.1,2.7,4.7,3c2.1,1.3,5,0.9,6.6-0.9
							c0.6-0.7,1.1-1.6,1.3-2.5C45.4,237,44.8,234.7,42.8,233.4z"></path>
						<path d="M30,237.6c2.2-3.6,4.3-6.8,7.5-11.6c0,0,6.7,4.4,7.3,4.8c0.7,0.5,1.2,1,1.6,1.5c-2.7-6.2-9-10.6-16.2-10.6
							c-5.8,0-10.9,2.8-14.1,7C19.6,230.9,23.9,233.6,30,237.6z"></path>
					</g>
					<g>
						<path d="M13.4,226.7c0-1.2-1-2.2-2.2-2.2c-1.2,0-2.2,1-2.2,2.2c0,1.2,1,2.2,2.2,2.2C12.4,228.9,13.4,227.9,13.4,226.7z"></path>
						<g>
							<path d="M15,220.2l1.1-0.8c0.6-0.4,1.3-0.4,1.7,0.2l0,0c0.4,0.6,0.2,1.3-0.4,1.7l-0.5,0.4l0.6,0.9l-0.5,0.3L15,220.2z
								 M17,220.8c0.4-0.3,0.4-0.6,0.2-0.9l0,0c-0.2-0.3-0.6-0.3-0.9-0.1l-0.5,0.4l0.7,1L17,220.8z"></path>
							<path d="M19.4,219.2L19.4,219.2c-0.4-0.9,0-1.9,0.9-2.3c0.9-0.4,1.9,0,2.2,0.9l0,0c0.4,0.8,0,1.8-0.9,2.2
								C20.7,220.5,19.7,220.1,19.4,219.2z M21.9,218.1L21.9,218.1c-0.3-0.6-0.9-0.9-1.5-0.6c-0.6,0.3-0.8,0.9-0.5,1.5l0,0
								c0.3,0.6,0.9,0.9,1.5,0.6C22,219.3,22.2,218.7,21.9,218.1z"></path>
							<path d="M23.9,215.7l0.6-0.1l0.6,2.7l1.7-0.4l0.1,0.5l-2.2,0.5L23.9,215.7z"></path>
							<path d="M28.5,217l-1.4-1.9l0.7,0l1,1.4l0.8-1.5l0.7,0l-1.2,2l0.1,1.3l-0.6,0L28.5,217z"></path>
							<path d="M32.6,215.6l-1-0.1l0.1-0.5l2.6,0.3l-0.1,0.5l-1-0.1l-0.3,2.7l-0.6-0.1L32.6,215.6z"></path>
							<path d="M36.3,215.7l2.3,0.7l-0.2,0.5l-1.8-0.5l-0.3,0.8l1.6,0.5l-0.2,0.5l-1.6-0.5l-0.3,0.8l1.8,0.6l-0.2,0.5l-2.3-0.7
								L36.3,215.7z"></path>
							<path d="M39.7,218.7L39.7,218.7c0.4-0.8,1.4-1.2,2.3-0.7c0.5,0.3,0.8,0.6,0.9,1.1l-0.5,0.2c-0.1-0.3-0.3-0.6-0.6-0.8
								c-0.6-0.3-1.2-0.1-1.5,0.5l0,0c-0.3,0.6-0.2,1.2,0.4,1.5c0.4,0.2,0.7,0.2,1,0.1l0.1,0.5c-0.5,0.2-0.9,0.2-1.4-0.1
								C39.6,220.5,39.3,219.5,39.7,218.7z"></path>
							<path d="M44.9,219.8l0.4,0.4l-0.9,1l1.2,1l0.9-1l0.4,0.4l-2.1,2.5l-0.4-0.4l0.9-1.1l-1.2-1l-0.9,1.1l-0.4-0.4L44.9,219.8z"></path>
							<path d="M48.7,223.4l0.3,0.4l-0.7,2.8l1.8-1.4l0.3,0.4l-2.6,2l-0.3-0.4l0.7-2.9l-1.8,1.4l-0.3-0.4L48.7,223.4z"></path>
							<path d="M51.6,227.5l0.3,0.5l-2.9,1.6l-0.3-0.5L51.6,227.5z"></path>
							<path d="M50.8,233.4c-0.3-0.2-0.5-0.5-0.6-0.8c-0.3-1,0.2-1.9,1-2.2l0,0c0.9-0.3,1.8,0.1,2.2,1.1c0.3,1-0.2,1.9-1,2.2l0,0
								c-0.4,0.1-0.7,0.1-1.1,0l-0.2,0.5l-0.5-0.2L50.8,233.4z M51,232.9l0.3-0.7l0.5,0.2l-0.3,0.7c0.2,0,0.4,0,0.6,0l0,0
								c0.6-0.2,1-0.8,0.7-1.4c-0.2-0.6-0.9-0.9-1.5-0.7l0,0c-0.6,0.2-1,0.8-0.7,1.4C50.8,232.6,50.9,232.8,51,232.9z"></path>
							<path d="M52.5,235.4l1.9-0.2l0.1,0.6l-1.9,0.2c-0.6,0.1-0.9,0.4-0.8,0.9c0.1,0.5,0.4,0.8,1,0.7l1.9-0.2l0.1,0.6l-1.8,0.2
								c-1,0.1-1.5-0.4-1.6-1.2C51.1,236.1,51.5,235.5,52.5,235.4z"></path>
							<path d="M54.7,240.2l-0.2,2.4l-0.5,0l0.1-1.9l-0.9-0.1l-0.1,1.6l-0.5,0l0.1-1.6l-0.9-0.1l-0.1,1.9l-0.5,0l0.2-2.5L54.7,240.2
								z"></path>
						</g>
						<g>
							<path d="M16.2,259.6l-0.5-0.3l1.9-2.7l0.5,0.3L16.2,259.6z"></path>
							<path d="M13.8,257.8l-0.4-0.4l0.4-2.8l-1.6,1.6l-0.4-0.4l2.3-2.3l0.3,0.3l-0.4,2.9l1.7-1.6l0.4,0.4L13.8,257.8z"></path>
							<path d="M12.8,252.5l-0.5-0.1c0.1-0.4,0-0.8-0.2-1.1c-0.2-0.3-0.5-0.4-0.7-0.3l0,0c-0.2,0.1-0.2,0.3,0,0.9
								c0.2,0.7,0.3,1.1-0.2,1.5l0,0c-0.5,0.3-1.1,0.1-1.4-0.4c-0.3-0.4-0.4-0.8-0.3-1.2l0.5,0c0,0.4,0,0.7,0.2,0.9
								c0.2,0.3,0.4,0.4,0.6,0.2l0,0c0.2-0.1,0.2-0.3,0-0.9c-0.2-0.7-0.2-1.1,0.2-1.4l0,0c0.5-0.3,1.1-0.1,1.5,0.4
								C12.7,251.5,12.9,252,12.8,252.5z"></path>
							<path d="M8.3,249.2l0.4,1l-0.5,0.2l-1.1-2.4l0.5-0.2l0.4,1l2.5-1.1l0.2,0.5L8.3,249.2z"></path>
							<path d="M6.6,246.2l-0.2-0.6l3.2-0.9l0.2,0.6L6.6,246.2z"></path>
							<path d="M6.4,242.7l0.1,1L6,243.8l-0.3-2.6l0.5-0.1l0.1,1l2.7-0.3l0.1,0.6L6.4,242.7z"></path>
							<path d="M7.5,239.4l-1.9-0.1l0-0.6l1.9,0.1c0.6,0,1-0.3,1-0.8c0-0.5-0.3-0.8-0.9-0.9L5.8,237l0-0.6l1.9,0.1
								c1,0.1,1.4,0.6,1.4,1.5C9,238.9,8.5,239.5,7.5,239.4z"></path>
							<path d="M6.9,233.7l-0.3,1l-0.5-0.1l0.7-2.6l0.5,0.1l-0.3,1l2.7,0.7l-0.1,0.6L6.9,233.7z"></path>
						</g>
						<g>
							<path d="M22.9,259.3l1.3,0.4c1.3,0.4,1.8,1.2,1.5,2.2l0,0c-0.3,1-1.1,1.5-2.5,1.1l-1.2-0.3L22.9,259.3z M23.5,262.1
								c0.5,0.1,0.9,0,1-0.4l0,0c0.1-0.5-0.1-0.8-0.6-0.9l-0.2-0.1l-0.4,1.4L23.5,262.1z"></path>
							<path d="M27.7,260.5l2.9,0.1l0,0.9l-1.8-0.1l0,0.3l1.7,0.1l0,0.8l-1.7-0.1l0,0.4l1.8,0.1l0,0.9l-3-0.1L27.7,260.5z"></path>
							<path d="M35,260.1l1.5-0.5c0.9-0.3,1.6-0.1,1.8,0.7l0,0c0.2,0.8-0.2,1.4-1.1,1.7l-0.4,0.1l0.3,0.9l-1.1,0.3L35,260.1z
								 M36.9,261.3c0.3-0.1,0.4-0.3,0.4-0.5l0,0c-0.1-0.2-0.3-0.3-0.6-0.2l-0.3,0.1l0.2,0.7L36.9,261.3z"></path>
							<path d="M40.1,258.1l1-0.6l3,2.3l-1.1,0.6l-0.4-0.3l-1,0.6l0.1,0.5l-1.1,0.6L40.1,258.1z M42,259.6l-0.7-0.6l0.1,0.9
								L42,259.6z"></path>
							<path d="M43.5,256l1.2-1.1c0.4-0.4,0.8-0.6,1.2-0.6c0.3,0,0.5,0.1,0.8,0.4l0,0c0.3,0.4,0.4,0.8,0.2,1.2l1.4,0.3l-1,0.9
								l-1.1-0.3l0,0L46,257l0.7,0.7l-0.8,0.8L43.5,256z M45.8,256.1c0.2-0.2,0.2-0.4,0.1-0.5l0,0c-0.2-0.2-0.4-0.1-0.5,0.1
								l-0.4,0.3l0.5,0.5L45.8,256.1z"></path>
							<path d="M46.9,252.4l0.7-0.9l2.8,2l-0.7,0.9L46.9,252.4z"></path>
							<path d="M51.1,251.5l-0.4-0.9c0.4-0.2,0.7-0.5,0.9-0.9c0.1-0.2,0.1-0.3,0-0.3l0,0c-0.1,0-0.2,0-0.4,0.3
								c-0.5,0.6-1,1.1-1.6,0.8l0,0c-0.6-0.3-0.8-1-0.4-1.8c0.3-0.6,0.6-1,1.1-1.2l0.5,0.8c-0.4,0.2-0.6,0.5-0.8,0.8
								c-0.1,0.2-0.1,0.3,0,0.3l0,0c0.1,0,0.2,0,0.4-0.3c0.5-0.7,1-1.1,1.6-0.8l0,0c0.6,0.3,0.8,1,0.4,1.9
								C52.1,250.8,51.6,251.3,51.1,251.5z"></path>
						</g>
					</g>
				</g>
				<g>
					<path d="M64.5,231.9h3.3V247h-3.3V231.9z"></path>
					<path d="M80.5,231.9h-6.2V247h3.3v-4.5h2.5c3.4,0,6.1-1.8,6.1-5.3C86.3,234,84.1,231.9,80.5,231.9z M80.3,239.5h-2.6v-4.6h2.6
						c1.7,0,2.7,0.8,2.7,2.3C82.9,238.5,81.9,239.5,80.3,239.5z"></path>
					<path d="M103.3,231.9h-6.2V247h3.3v-4.5h2.5c3.4,0,6.1-1.8,6.1-5.3C109.1,234,106.9,231.9,103.3,231.9z M103.1,239.5h-2.6v-4.6
						h2.6c1.7,0,2.7,0.8,2.7,2.3C105.8,238.5,104.8,239.5,103.1,239.5z"></path>
					<path d="M117.4,231.8h3.1L127,247h-3.5l-1.4-3.4h-6.4l-1.4,3.4H111L117.4,231.8z M121,240.7l-2-4.9l-2,4.9H121z"></path>
					<path d="M131.2,231.9h6.9c1.9,0,3.4,0.5,4.4,1.5c0.8,0.8,1.3,2,1.3,3.5v0c0,2.4-1.3,4-3.2,4.7l3.7,5.4h-3.9l-3.2-4.8h0h-2.6
						v4.8h-3.3V231.9z M137.9,239.2c1.6,0,2.6-0.9,2.6-2.1v0c0-1.4-1-2.2-2.6-2.2h-3.3v4.4H137.9z"></path>
					<path d="M149.5,231.9h3.3V247h-3.3V231.9z"></path>
					<path d="M164.9,238c-2.6-0.7-3.3-1-3.3-2c0-0.7,0.7-1.3,1.9-1.3c1.3,0,2.6,0.6,3.9,1.5l1.7-2.5c-1.5-1.2-3.4-1.9-5.6-1.9
						c-3.1,0-5.3,1.8-5.3,4.6c0,3,2,3.9,5,4.7c2.5,0.6,3.1,1.1,3.1,1.9c0,0.9-0.8,1.4-2.2,1.4c-1.7,0-3.2-0.7-4.5-1.8l-2,2.4
						c1.8,1.6,4.1,2.4,6.4,2.4c3.3,0,5.6-1.7,5.6-4.7C169.7,239.9,168,238.8,164.9,238z"></path>
				</g>
			</g>
			<rect x="5.8" y="201.9" width="163.4" height="1.7"></rect>
		</g>
	</g>
</g>
<g>
	<g>
		<g>
			<g>
				<g>
					<g>
						<g>
							<g>
								<g>
									<rect x="5.7" y="5.7" width="163.4" height="112.4"></rect>
									<g>
										<path class="st2" d="M169,168.9l-0.1-43.2h-7.3c-0.8,1-0.2,5.6-2.6,6.5c-7.8-1.8-0.7-2.7-3.4-6.5c-0.3,0-3.5,0-3.9,0
											c0.4,0,1.7,1.6-0.3,3.3c-2.8,18.1,2.3,25.5-0.3,39.8L169,168.9z"></path>
										<g>
											<path class="st2" d="M52.1,139.1c2.9-1.4,3-4.5,3.1-6.5c-0.9-1-4.4-1.1-5.8-0.8c-1.9,1.6-0.3,4.5-1.4,6.4
												C48.8,139.9,50.8,138.7,52.1,139.1z"></path>
											<path class="st2" d="M68.9,160.6l0.9,0.3c0.8,0.2,1.9,0.2,2.7-0.2c-0.2-0.6-0.5-1.1-0.9-1.6
												C70.7,159.5,69.8,160,68.9,160.6z"></path>
											<path class="st2" d="M79.8,149.3c-2.1,0.1-3.9,3.1-5.6,1.8c1-2.9,3.3-5.3,4.3-8.1c1.7-3.9,4.5-12.3,3.3-17.3h-7.9
												c-2.6,0.7-0.7,7.4-3.3,7.9c-0.7-1.8-0.5-4-2.6-7.8h-4.3c0.3,2.9-0.1,3-0.3,3.3c-1.5,0.1-1.3-2.2-3.2-1
												c-1.6-0.3-2.1,2.3-3.8,1.8c-0.6-1.4-2.2-3.2-4-2.1c1.6,3.3,9.3,4.7,5.6,10.2c-0.7,1.6-0.2,3.9-2.1,4.7
												c-3.5-0.9-6.7-2.3-10.2-3.1c0.4,1.3-0.6,3.1-0.2,4.4c3.7,0.5,4.8,4.3,8,5.5c0.7,0.5,1,1.1,0.8,1.9
												c-2.2,0.9-4.6-1-6.7-1.9c-0.5,0.2-0.2,0.7-0.3,1.1c1.9,2.3,8.1,1.3,6.1,6c-1.7,3.9-1.3,10.2-7.2,10.8
												c-0.5,1.2,0.9,1.1,1.3,1.6c5,0.5,10.2-4.3,14.4-0.3c1.4,0,3.2-0.9,4.3,0.3h12.6c2.4-4.6,0.5-7.5,0.8-11.7
												c0.3-1.1-3-2.2-5.4-1.6c-0.4-0.3-0.2-0.9-0.2-1.4c1.6-1.9,8.1,0.9,6.7-3.6C80.6,150.3,80.6,149.4,79.8,149.3z
												 M53.1,144.6H52c-1.6-0.6-5-1.4-5.1-3.2c2.1,0.6,4.1,1.7,6.2,2.4V144.6z M67.5,131.1l-0.4,4.5c-0.2,0.7-0.7,2.1-2,1.6
												c-1.5,0.4-0.7-1.5-0.9-2.2C65.6,133.9,65.9,131.4,67.5,131.1z M67.5,144.3c-1.3,0.9-3.4,0.6-4.8,0.3
												c0.4-0.6,0.5-1.2,0.5-1.9c0.9-0.7,1.9-2.3,3.5-1.8C67.4,141.8,67.7,143,67.5,144.3z M61.6,131.7c0.2-1.7,2.1-1,3.3-1.5
												l0.2,0.7c-1,0.8-1.8,2.5-3.5,1.9V131.7z M61.4,149.8c2,0.4,4.2-1.1,5.6,0.5c-0.7,1.4-0.7,3.7-3,2.4
												c-1-0.8-3.3-0.4-3.2-2.4L61.4,149.8z M58.9,130.4c0.4-0.6,0.9-1.7,1.9-1.3c-0.1,0.9-0.5,2.5-1.9,1.8V130.4z M57.4,147.7
												c1.3-0.7,3.1-0.6,2.8,1.8h-2.1C57.7,149.1,57.1,148.6,57.4,147.7z M52.5,146.8c0.4-0.7,1.2-0.3,1.7-0.4
												c0.2,1.6,2.7-0.4,1.7,1.7h-0.3C54.6,148.7,52.9,148.1,52.5,146.8z M55.4,164.8c-1.8-3.2,0.3-8.5,0.8-11.5
												c0.4-0.4,0.9-1,1.6-0.8c0.5,1.7-1.9,2.8-0.3,4.2c1.7-0.5,3.9,1,5.6-0.3c-0.9-1.4-2.7-0.7-4-1.3v-0.8L63,154
												c0.6,0.8,3.3,1.6,2.7,3.1C63.2,160.7,58.8,162.7,55.4,164.8z M72.5,160.6c0.7,1.7,0.8,3.9-0.1,5.2l-8.6,0.3v-1.1
												c1.5-2,3.2-3.4,5-4.5l-1.7-0.5c-2.4-1.7,3.3-4.1,4.2-4.7l2.3,3.7C73.6,159.9,73.1,160.4,72.5,160.6z M69.1,141
												c-1.8-4.7,4.6-6.6,7.1-9.5l3.3,1.8c-0.4,3.2-6.2,3.8-5.9,7.3c0.6,0.5,1.1,1.4,1.9,1.6c0.3,0.9-0.4,1.4-1,1.9
												C72.1,145.2,70.8,142.6,69.1,141z"></path>
										</g>
										<g>
											<path class="st2" d="M18.1,130.4c-7.9-0.5-12.2,0.3-12.3,0.3v6.3h1.5c1.8,0.5,3,0.6,4.8,0.6c6.6,0.7,12.2-0.3,18.8-0.7
												c-0.7-0.2-1.5-0.4-2.2-0.4c-1.1-0.8-1.8-1.4-1.6-2.7c1.7-1.9,4.9-0.3,7-1.4c1.8,0.7,0.6,2.7,1,3.9
												c-0.2,0.3-0.4,0.3-0.6,0.5c2,0,4.2,0,6.5,0.3v-6.5C31.3,129.9,24.4,130.8,18.1,130.4z"></path>
											<path class="st2" d="M92.4,128.2c3.2,0.8,6.5,1.2,9.9,1.3v-3.8H88.1c0,3-2.3,7.2-2.3,7.2c1.2,0,2.5,0.1,3.5,0.6v0.8
												c-1.2-0.3-2.3-0.4-3.5-0.5v12.3h1.6c0.1,0.3,0.4,0.4,0.3,0.8l-0.3,0.6h-1.6v1.5c0.5,0,1.1,0.2,1.6,0
												c0,0.1,0.1,0.1,0.1,0.2c0.7,0.1,1.3,1.1,2.2,0.6v0.8H88c-0.3,0-0.7-0.1-1-0.4c-0.4,0.2-0.8,0.2-1.2,0.2v1.1
												c1.2-0.5,2.9,0.1,4.1,0.1c0.1,0.3,0.4,0.4,0.3,0.8l-0.3,0.6c-1.2-0.5-2.8-0.2-4.1-0.3v9.5c0.4,0.1,0.9,0.2,1.2,0.3
												c0.1,0.4,0.5,0.6,0.5,1c-0.5,0.3-1.1,0.4-1.7,0.2v5.3h16.4v-5.3c-0.6,0.1-2.2,0.2-2.7-0.1c0-0.4,1.6-3.8,2.1-3.8l0.6-7.1
												c-1.3,0.1-2.8-0.1-4.1,0.3l-0.3-0.6c-0.1-0.4,0.2-0.5,0.3-0.8c1.2-0.1,2.8-0.6,4.1-0.1v-1.1c-0.7,0.1-1.4-0.1-1.9-0.6
												c0-0.4,0.2-0.5,0.3-0.8c0.5,0.1,1,0,1.5,0v-1.5h-1.5l-0.3-0.6c0-0.4,0.2-0.5,0.3-0.8h1.5v-12.3c-1.2,0.1-2.4,0.2-3.5,0.5
												v-0.8c1.1-0.5,2.3-0.6,3.5-0.6v-2.4c-2.9-0.2-5.8-0.5-8.6-0.7c-0.7-0.4-1.7-0.3-2.2-1C91.7,128.3,92,128.2,92.4,128.2z
												 M101.2,137.3v2.4c-1.1-0.1-2.5,0.4-3.5-0.4C98.2,137.5,100.1,137.7,101.2,137.3z M87.9,135.6H90v0.8h-2.2V135.6z
												 M91.3,138.8c-0.9,0.7-2.1,1-3.1,1.1l-0.6-2C88.8,137.7,90.9,137.2,91.3,138.8z M86.5,157.4v-0.8h2.8v0.8H86.5z
												 M98.9,166.4c-1,2.3-2.8,0.6-4,0c-1-0.4-1.9,2.6-2.8,0.4c0-0.5,0.2-0.7,0.3-1.1C94.6,164.1,97,165.4,98.9,166.4z
												 M96.6,147.8h-4.1v-1.5h4.1V147.8z M95.7,153.6v2.2c-0.7-0.1-1.7,0.4-2.2-0.4C93.7,153.7,95,153.8,95.7,153.6z
												 M94.3,135.9c0.6,0.4,1.8,0.5,1.2,2.1c-0.7,0.7-1.3-1.1-2-1.3L94.3,135.9z M94.2,132.8l-1.2,1.3c-0.5,0-1.3-1.4-1.5-2
												C91.9,131.7,94,132.3,94.2,132.8z M96.4,158.9v1.9c-2.5,0.9-4.9,3.7-7.7,2.4v-1.7c1.1-0.5,2.4,1,3.3-1.4
												C93.6,160.3,94.8,158,96.4,158.9z M91.7,143.4c-1.4,0.4-3.2,0.7-4.5-0.2c0.7-1.5,2.2-0.6,3.3-0.8
												C90.9,142.9,91.6,142.4,91.7,143.4z"></path>
										</g>
										<g>
											<path class="st2" d="M19.4,128.4c7,0,14.7-0.6,21.8-0.1v-2.7H5.8c0,1.1,0,2.8,0,2.8C10.2,127.8,15.7,128.4,19.4,128.4z"></path>
											<path class="st2" d="M14,141.3c-2,0-4.1-1.9-6.1-2.6h-1l-1,0.2l0,30h35.4v-30.4C32,137.5,24,142,14,141.3z"></path>
										</g>
										<path class="st2" d="M147.1,148.7c-2.1-5,2.6-21.7-5-23.1c-0.8-0.1-1.5,0.2-2.2,0.8c1.3,1,2.3,2.4,2.6,4
											c-1.8,3.9-5.5-0.9-8,0.4v3.2c-1,0.9-1.8,2-3.3,1.6c-0.9-1-2.1-1.7-1.6-3.2c0.9-1.9,3-1.2,4.3-2c0,0-0.1-0.1-0.1-0.1
											c-2.5-0.6-2.2-4.6-6.5-4.6h-8.2c-3.8,1.2-8.5,3.3-12.8,0l0.8,5.4l0.5,1.8l0,1.6l1.9,1.7l-2,1.7l0.7,4.1
											c1.5,0.4,3.1,0.5,3.2,1.9c-0.3,2.3-2,4.9-2,7.2c-0.1,2.9,1.5,14.8,1.5,17.7c1.6-0.1,9-0.4,10.6-1.2c0,0.1,2.1,1.2,2.1,1.2
											c2.7,0.3,6.1,0.9,5.3-3.7l-1.9-12.2c-2.3-6.3,1.9-7.8,3.3-7.9l1.1,1c-0.4,1.2-0.6,2.4-0.7,3.6c0.3,0.5,0.5,1,0.4,1.7
											c0.1,0.7-0.1,1.2-0.4,1.5c0.4,5.7,3.2,10.6,3.2,16.1l7.2,0l2.6-2l-0.5-5l0.3-4.8l-0.2-8.8c1.1,0.3,2.2,0.6,3.4,1
											L147.1,148.7z M111.6,134.8c-1.4-1.2-2.3-2.6-1.9-4.5c0.9-2.1,3.9-1.4,5.1-0.5c1,1.4,2.7,3.1,0,3.8
											C115.1,136.9,112.6,136.4,111.6,134.8z M119.6,162.7V160l-2-1.9l-0.9-2.9c-1-4.4,0.1-9.5,0.9-11.2c0,0,0,0-0.1,0.1
											c-0.7-0.2-1.9,0.4-2.4-0.5c0.7-1.1-0.3-2.8,0.8-3.7c0.8-0.2,2.8-0.1,3.3,0.5c-0.1,0.9-0.1,2.2-0.9,3.1
											c0.8-0.2,1.8,0,2.4,0.6c-0.2,8.5,0.6,14.2,1.3,21.9L119.6,162.7z M124.5,133.6c0.4,1.7-2,2.1-2.9,2.2
											c-1-0.5-2.3-2.5-1.6-4.1c0.7-0.7,1.2-1.5,2.5-1.2C123.2,131.5,125.1,132,124.5,133.6z M128.9,139.7
											c-0.3,1.2-1.8,2.7-3.8,2.3c-1-0.7-0.6-2.1-0.9-3.1c0.2-0.7,2.4-1.3,3.2-1.1C127.9,138.3,129.2,138.9,128.9,139.7z
											 M131.9,141.9c0.4-0.6,2-1.4,2.8-1.3c0.9,0.4,1.5,2,1.1,3.2c-0.1,0.9-1.1,0.7-1.9,0.7
											C132.9,144.2,131.6,143.2,131.9,141.9z M137.2,161.3c-0.9,1-0.6,5.4-2.8,3.1c-2.3-6,0.8-10.1,1.3-15.4
											c1.3-1.4,2.8-2,3.6-1.6c0.2,0,1.3,2.7,1.5,2.7c0.3,3.7-2,3.8,0.2,9.9C140.4,161.1,137.8,160.6,137.2,161.3z M142.2,145.5
											c-0.8-0.1-2.6-0.2-2.8-1.4c-0.2-1.3-0.3-3,2.6-2.5C144,142.2,144.9,145.1,142.2,145.5z"></path>
									</g>
								</g>
							</g>
						</g>
					</g>
					<g>
						<g>
							<g>
								<g>
									<path class="st3" d="M100.3,79.2c1.1-0.1,3.6-0.1,5.1,0c2.8,0.2,4,1.8,4,3.8c0,2.6-2,4.5-5.6,4.7c-1.2,0.1-2.6,0.1-3.5,0
										V79.2z M100.3,88.9c0.9,0,3.2,0.2,4.8-0.1c5-0.8,7.5-2.4,7.5-6c0-3.5-2.2-4.8-9.1-4.8h-6.3v20.1c0.5,0,1-0.1,1.5-0.1
										c0.5,0,1,0,1.5,0.1V88.9z"></path>
									<path class="st3" d="M122.3,91.5c0,0.8,0,1.3-0.1,2.1c-0.3,1.8-1.7,3.9-4.1,4c-2,0.1-3-1.5-2.8-2.9c0.3-3.3,1.6-2.8,5.5-4
										l1.5-0.5V91.5z M122.3,89.5l-0.6,0.2c-1.3,0.5-1.3,0.4-3.6,0.9c-2.8,0.6-5.6,0.9-5.8,4.1c-0.1,2,2,3.5,4.4,3.6
										c2.3,0.1,4.6-0.9,5.4-2.8V98h4.6v-0.5h-1.6v-8.8c0-2.3-0.4-4.5-5.4-4.7c-1.4-0.1-1.7,0.1-2.7,0.2c-1.1,0.2-2.2,0.5-3,0.8
										v4.2h0.7l0.8-1.8c0.7-1.5,1.4-3.2,3.8-2.9c2.5,0.2,2.9,1.6,2.9,3V89.5z"></path>
									<path class="st3" d="M135.4,98h-6.9v-0.5h1.7V84.9h-1.8v-0.6h4.4v2.9c0.2-1,1.8-3,4.3-3c0.7,0,1.4,0.2,2.1,0.5v5h-0.7
										l-0.9-2.3c-0.6-1.6-1.1-2.7-2.1-2.2c-2.6,1.2-2.4,4.2-2.4,7v5.3h2.2V98z"></path>
									<path class="st3" d="M141.2,98v-0.5h1.7V84.9h-1.6v-0.6h4.6v13.2h1.6V98H141.2z M146,81.1c0,0.9-0.9,1.5-1.9,1.5
										c-0.9,0-1.8-0.7-1.8-1.5c0-0.8,0.8-1.5,1.8-1.5C145.1,79.6,146,80.3,146,81.1z"></path>
									<path class="st3" d="M158.8,87.5c-0.7-2.1-1.4-3-3.4-3c-1.7,0-3.9,0.6-4,2.3c-0.1,1.5,1.8,2.2,3.6,2.7
										c3,0.9,6.4,1.7,6.3,4.5c-0.1,2.6-2.7,4.5-6.3,4.5c-2,0-4.4-0.7-5.2-1.2v-4.5h0.7l0.8,2.3c0.9,2.6,1.9,2.6,3.4,2.7
										c2.2,0.2,4.6-0.7,4.8-2.5c0.3-2.2-3.2-2.7-5.4-3.4c-1.6-0.5-4.6-1.3-4.6-3.9c0-3,3.9-4,6-4c1.7,0,3.8,0.6,4.5,0.9V89h-0.7
										L158.8,87.5z"></path>
								</g>
							</g>
						</g>
						<g>
							<path class="st0" d="M30.1,53.6h-6.4V72c0,0.8-0.7,1.5-1.5,1.5h-0.7c-0.8,0-1.5-0.6-1.5-1.5V53.6h-6.4
								c-0.8,0-1.5-0.5-1.5-1.4v-0.5c0-0.8,0.7-1.4,1.5-1.4H30c0.8,0,1.5,0.5,1.5,1.4v0.5C31.5,53.1,30.8,53.6,30.1,53.6z"></path>
							<path class="st0" d="M50.8,73.4h-15c-0.8,0-1.4-0.6-1.4-1.4V51.7c0-0.8,0.6-1.4,1.4-1.4h14.2c0.8,0,1.5,0.5,1.5,1.4v0.5
								c0,0.8-0.6,1.4-1.5,1.4H38.1v6.7h11.1c0.8,0,1.5,0.5,1.5,1.4v0.5c0,0.8-0.6,1.4-1.5,1.4H38.1v6.6h12.7c0.8,0,1.5,0.5,1.5,1.4
								v0.5C52.3,72.9,51.6,73.4,50.8,73.4z"></path>
							<path class="st0" d="M71.1,73.4H56V51.8c0-0.8,0.6-1.5,1.5-1.5h0.7c0.8,0,1.5,0.6,1.5,1.5v18.3h11.5c0.8,0,1.5,0.5,1.5,1.4
								v0.5C72.5,72.9,71.9,73.4,71.1,73.4z"></path>
							<path class="st0" d="M91.3,73.4h-15c-0.8,0-1.4-0.6-1.4-1.4V51.7c0-0.8,0.6-1.4,1.4-1.4h14.2c0.8,0,1.5,0.5,1.5,1.4v0.5
								c0,0.8-0.6,1.4-1.5,1.4H78.5v6.7h11.1c0.8,0,1.5,0.5,1.5,1.4v0.5c0,0.8-0.6,1.4-1.5,1.4H78.5v6.6h12.7c0.8,0,1.5,0.5,1.5,1.4
								v0.5C92.7,72.9,92.1,73.4,91.3,73.4z"></path>
							<path class="st0" d="M111.3,73.4h-9.5c-3,0-5.3-2.6-5.3-5.5V55.8c0-3,2.5-5.4,5.5-5.4h8.7c0.8,0,1.5,0.5,1.5,1.4v0.5
								c0,0.8-0.6,1.4-1.5,1.4h-7.5c-2.3,0-3.2,1.4-3.2,3.2v10.4c0,2.3,1.5,3,3.3,3h8c0.8,0,1.5,0.5,1.5,1.4v0.5
								C112.7,72.9,112.1,73.4,111.3,73.4z"></path>
							<path class="st0" d="M129.5,73.4h-7.9c-3,0-5.4-2.5-5.4-5.4V55.7c0-3,2.6-5.3,5.6-5.3h7.5c3,0,5.6,2.4,5.6,5.3V68
								C134.9,70.9,132.5,73.4,129.5,73.4z M131.3,56.3c0-1.5-1.2-2.7-2.7-2.7h-6.2c-1.5,0-2.7,1.2-2.7,2.7v11.2
								c0,1.5,1.2,2.7,2.6,2.7h6.2c1.5,0,2.7-1.2,2.7-2.7V56.3z"></path>
							<path class="st0" d="M159.4,73.4h-0.7c-0.8,0-1.5-0.6-1.5-1.5V56.6l-4.9,6.8c-0.4,0.6-0.8,1.1-1.6,1.1h-0.5
								c-0.7,0-1.1-0.5-1.6-1.1l-4.9-6.8V72c0,0.8-0.7,1.5-1.5,1.5h-0.7c-0.8,0-1.5-0.6-1.5-1.5V51.7c0-0.8,0.5-1.4,1.4-1.4h0.9
								c0.6,0,1.2,0.6,1.5,1.1l6.5,9.2l6.6-9.2c0.3-0.5,0.8-1.1,1.5-1.1h0.9c0.8,0,1.4,0.6,1.4,1.4V72
								C160.8,72.8,160.2,73.4,159.4,73.4z"></path>
						</g>
					</g>
				</g>
			</g>
		</g>
	</g>
</g>
</svg>