<?xml version="1.0" encoding="utf-8"?>
<!-- Generator: Adobe Illustrator 15.1.0, SVG Export Plug-In . SVG Version: 6.00 Build 0)  -->
<!DOCTYPE svg PUBLIC "-//W3C//DTD SVG 1.1//EN" "http://www.w3.org/Graphics/SVG/1.1/DTD/svg11.dtd" [
	<!ENTITY ns_extend "http://ns.adobe.com/Extensibility/1.0/">
	<!ENTITY ns_ai "http://ns.adobe.com/AdobeIllustrator/10.0/">
	<!ENTITY ns_graphs "http://ns.adobe.com/Graphs/1.0/">
	<!ENTITY ns_vars "http://ns.adobe.com/Variables/1.0/">
	<!ENTITY ns_imrep "http://ns.adobe.com/ImageReplacement/1.0/">
	<!ENTITY ns_sfw "http://ns.adobe.com/SaveForWeb/1.0/">
	<!ENTITY ns_custom "http://ns.adobe.com/GenericCustomNamespace/1.0/">
	<!ENTITY ns_adobe_xpath "http://ns.adobe.com/XPath/1.0/">
]>
<svg version="1.1" id="Ebene_1" xmlns:x="&ns_extend;" xmlns:i="&ns_ai;" xmlns:graph="&ns_graphs;"
	 xmlns="http://www.w3.org/2000/svg" xmlns:xlink="http://www.w3.org/1999/xlink" x="0px" y="0px" width="840px" height="434px"
	 viewBox="0 0 840 434" enable-background="new 0 0 840 434" xml:space="preserve">

		<path fill="#3C3C3B" d="M495.985,264.542h-75.27v12.84h59.541v11.715c0,16.049-9.547,21.244-25.273,21.244h-61.654
			c-15.086,0-27.179-4.232-27.179-24.454v-43.652c0-20.222,12.197-24.716,27.283-24.716h40.764c38.838,0,45.419,1.604,45.419,23.271
			h14.764v-4.172c0-26.801-22.308-31.938-43.171-31.938h-59.381c-31.456,0-41.406,14.123-41.406,43.493v31.775
			c0,29.37,9.95,43.493,41.406,43.493h64.838c29.048,0,39.319-11.233,39.319-42.851V264.542L495.985,264.542z"/>
		<path fill="#3C3C3B" d="M671.589,279.963v-31.776c0-29.37-9.95-43.493-41.406-43.493h-66.924
			c-31.456,0-41.406,14.123-41.406,43.493v31.776c0,29.37,9.95,43.493,41.406,43.493h66.924
			C661.639,323.456,671.589,309.333,671.589,279.963L671.589,279.963z M655.861,285.901c0,20.222-12.198,24.716-27.283,24.716
			h-63.715c-15.086,0-27.283-4.494-27.283-24.716v-43.653c0-20.221,12.197-24.715,27.283-24.715h63.715
			c15.085,0,27.283,4.494,27.283,24.715V285.901L655.861,285.901z"/>
		<path fill="#3C3C3B" d="M106.432,379.339c0,7.742,6.021,7.742,12.448,7.742h7.995c5.313,0,11.992-0.253,11.992-7.489v-0.103
			c0-6.982-4.453-7.64-10.98-7.64H116.4c-4.554,0-5.262-1.215-5.262-3.34v-0.961c0-2.936,1.366-3.542,7.59-3.542h7.59
			c4.756,0,7.388,0.101,7.388,4.048v0.253h4.048v-1.367c0-3.643-1.366-6.477-11.183-6.477h-6.679
			c-10.728,0-13.106,2.328-13.106,6.528v1.518c0,4.908,2.277,6.882,8.4,6.882h13.409c5.212,0,5.92,1.366,5.92,3.845v0.203
			c0,3.847-2.074,4.1-8.602,4.1h-9.31c-4.453,0-6.123-1.316-6.123-4.504v-1.266h-4.048V379.339L106.432,379.339z M173.883,370.988
			h-24.339c0.405-5.868,2.024-6.981,8.906-6.981h6.375c7.084,0,9.058,2.631,9.058,5.262V370.988L173.883,370.988z M145.192,376.505
			c0,9.513,6.477,10.576,12.144,10.576h7.894c8.096,0,13.005-1.771,13.005-7.692v-0.506h-4.352c-0.253,3.947-2.48,4.656-7.945,4.656
			h-5.97c-7.591,0-10.424-1.519-10.424-7.389v-1.619h28.691v-2.885c0-9.209-5.617-11.183-13.41-11.183h-6.983
			c-6.173,0-12.65,1.062-12.65,10.424V376.505L145.192,376.505z M185.926,386.676h4.352v-36.635h-4.352V386.676L185.926,386.676z
			 M226.861,370.988h-24.339c0.405-5.868,2.024-6.981,8.906-6.981h6.376c7.084,0,9.057,2.631,9.057,5.262V370.988L226.861,370.988z
			 M198.171,376.505c0,9.513,6.477,10.576,12.144,10.576h7.894c8.096,0,13.004-1.771,13.004-7.692v-0.506h-4.352
			c-0.253,3.947-2.479,4.656-7.944,4.656h-5.971c-7.59,0-10.424-1.519-10.424-7.389v-1.619h28.691v-2.885
			c0-9.209-5.617-11.183-13.409-11.183h-6.983c-6.173,0-12.65,1.062-12.65,10.424V376.505L198.171,376.505z M237.133,376.656
			c0,9.361,6.933,10.425,10.829,10.425h9.817c8.096,0,11.334-2.53,11.334-9.059v-0.759h-4.048v0.86c0,4.199-3.39,5.415-7.438,5.415
			h-7.337c-5.263,0-8.805-1.316-8.805-7.085v-5.414c0-6.427,3.846-7.033,7.944-7.033h7.995c4.352,0,7.186,1.012,7.186,5.312v0.607
			h4.048v-0.709c0-5.464-3.188-8.754-11.284-8.754h-7.287c-6.375,0-12.954,1.062-12.954,10.424V376.656L237.133,376.656z
			 M278.373,378.934c0,4.2,1.923,8.147,10.07,8.147h2.378c9.412,0,9.918-4.1,9.918-9.261v-2.834h-3.542v1.924
			c0,5.413-0.911,6.629-6.68,6.629h-1.366c-4.756,0-6.426-1.469-6.426-6.275v-12.853h17.255v-3.542h-17.255v-6.122h-4.352v6.122
			h-5.667v3.542h5.667V378.934L278.373,378.934z M330.947,386.676h4.351v-12.499h1.872l18.672,12.499h6.781l0.101-0.102
			l-21.202-14.169l17.812-11.436l-0.101-0.101h-6.781l-15.029,9.766h-2.125v-20.594h-4.351V386.676L330.947,386.676z
			 M367.429,386.676h4.352v-14.675c0-6.072,2.328-7.994,12.498-7.994h1.114c8.45,0,9.513,2.479,9.513,6.273v16.396h4.351v-17.458
			c0-4.655-2.58-8.754-10.727-8.754h-6.528c-5.414,0-8.804,0.86-10.423,4.857h-0.102v-4.452h-4.048V386.676L367.429,386.676z
			 M406.847,376.605c0,8.501,6.021,10.476,14.269,10.476h6.224c8.248,0,14.271-1.975,14.271-10.476v-5.667
			c0-8.501-6.022-10.475-14.271-10.475h-6.224c-8.248,0-14.269,1.974-14.269,10.475V376.605L406.847,376.605z M437.258,376.353
			c0,6.022-3.542,7.187-8.602,7.187h-8.855c-5.061,0-8.603-1.164-8.603-7.187v-5.161c0-6.021,3.542-7.185,8.603-7.185h8.855
			c5.06,0,8.602,1.163,8.602,7.185V376.353L437.258,376.353z M457.194,386.676h6.021l8.247-22.265l8.248,22.265h6.022l11.739-25.807
			h-4.604l-10.07,22.265l-8.196-22.265h-6.275l-8.197,22.265l-10.069-22.265h-4.604L457.194,386.676L457.194,386.676z
			 M502.785,386.676h4.353v-36.635h-4.353V386.676L502.785,386.676z M543.721,370.988h-24.339c0.404-5.868,2.024-6.981,8.905-6.981
			h6.376c7.084,0,9.058,2.631,9.058,5.262V370.988L543.721,370.988z M515.03,376.505c0,9.513,6.477,10.576,12.144,10.576h7.895
			c8.096,0,13.004-1.771,13.004-7.692v-0.506h-4.352c-0.253,3.947-2.479,4.656-7.944,4.656h-5.971
			c-7.591,0-10.424-1.519-10.424-7.389v-1.619h28.69v-2.885c0-9.209-5.616-11.183-13.409-11.183h-6.982
			c-6.174,0-12.65,1.062-12.65,10.424V376.505L515.03,376.505z M558.344,371.091c0-5.971,2.986-7.084,8.957-7.084h5.869
			c5.87,0,9.463,1.012,9.463,7.185v4.908c0,4.706-2.074,7.439-8.552,7.439h-7.084c-7.084,0-8.653-2.379-8.653-7.389V371.091
			L558.344,371.091z M586.984,350.041h-4.352v14.269h-0.101c-0.911-2.682-3.289-3.846-8.248-3.846h-6.629
			c-10.474,0-13.662,2.935-13.662,11.183v4.555c0,8.905,5.515,10.88,13.409,10.88h6.072c4.554,0,8.096-1.367,9.36-4.505h0.102v4.1
			h4.048V350.041L586.984,350.041z M622.91,375.038c0,4.451-2.277,6.932-8.5,6.932h-8.4c-5.312,0-7.438-1.822-7.388-7.742v-4.757
			c0.051-4.25,3.238-5.464,7.691-5.464h8.855c6.122,0,7.844,3.086,7.741,7.893V375.038L622.91,375.038z M627.262,360.869h-4.048
			v4.604h-0.101c-1.366-4.2-4.655-5.01-7.944-5.01h-9.26c-4.858,0-11.639,1.062-11.639,10.424v4.301
			c0,6.629,3.593,10.323,10.829,10.323h8.956c6.071,0,7.843-1.569,8.754-3.998h0.101v3.846c0,6.983-3.439,7.084-12.043,7.084h-4.25
			c-4.048,0-7.489-0.961-7.489-4.301v-0.708h-4.048v0.86c0,3.289,2.125,7.69,10.12,7.69h9.817c5.414,0,12.244-1.567,12.244-9.36
			V360.869L627.262,360.869z M663.239,370.988H638.9c0.404-5.868,2.023-6.981,8.905-6.981h6.376c7.084,0,9.058,2.631,9.058,5.262
			V370.988L663.239,370.988z M634.548,376.505c0,9.513,6.478,10.576,12.145,10.576h7.894c8.097,0,13.004-1.771,13.004-7.692v-0.506
			h-4.351c-0.253,3.947-2.48,4.656-7.945,4.656h-5.971c-7.59,0-10.423-1.519-10.423-7.389v-1.619h28.689v-2.885
			c0-9.209-5.615-11.183-13.408-11.183h-6.983c-6.173,0-12.65,1.062-12.65,10.424V376.505L634.548,376.505z"/>
		<polyline fill="#3C3C3B" points="95.985,306.9 39.654,204.83 22,204.83 87.337,322.596 51.556,386.882 69.079,386.882 
			170.614,204.694 152.961,204.694 		"/>
		<path fill="#3C3C3B" d="M323.314,279.963v-31.776c0-29.37-9.951-43.493-41.406-43.493h-59.381
			c-20.864,0-43.172,5.136-43.172,31.938v4.172h14.765c0-21.666,6.58-23.271,45.418-23.271h40.765
			c15.086,0,27.283,4.494,27.283,24.715v43.653c0,20.222-12.197,24.454-27.283,24.454h-61.862h-8.079c-18,0-18-18-18-18v-3.119
			c0-18,18-18,18-18h97.2v-13.321h-99.365c0,0-31,0-31,31v3.479c0,0,0,31,31,31h10.244l0,0l63.467,0.062
			C313.363,323.456,323.314,309.333,323.314,279.963L323.314,279.963z"/>
		<g>
			<defs>
				
					<rect id="SVGID_1_" x="637.105" y="19.131" transform="matrix(0.5 -0.866 0.866 0.5 265.541 683.0968)" width="174.488" height="184.905"/>
			</defs>
			<clipPath id="SVGID_2_">
				<use xlink:href="#SVGID_1_"  overflow="visible"/>
			</clipPath>
			
				<linearGradient id="SVGID_3_" gradientUnits="userSpaceOnUse" x1="342.3672" y1="-101.0933" x2="516.1182" y2="-101.0933" gradientTransform="matrix(-0.5 0.866 -0.866 -0.5 837.4133 -318.348)">
				<stop  offset="0" style="stop-color:#C8D400"/>
				<stop  offset="1" style="stop-color:#408927"/>
			</linearGradient>
			<path clip-path="url(#SVGID_2_)" fill="url(#SVGID_3_)" d="M704.011,76.387L662.707,52.54c0,0-8.269-4.773-13.042,3.494
				l-10.74,18.604c0,0-4.774,8.269,3.494,13.042l41.072,23.714l12.252-7.075c0,0,8.268-4.772,8.269-14.32L704.011,76.387z
				 M765.688,111.335l40.465-23.363c0,0,8.269-4.773,3.494-13.041l-10.74-18.603c0,0-4.773-8.268-13.041-3.495l-41.279,23.833
				l-0.001,12.939c0,0,0.001,9.547,8.269,14.32L765.688,111.335z M713.462,204.326l21.479,0.001c0,0,9.548-0.001,9.548-9.549
				l-0.001-48.829l-11.582-6.688c0,0-8.269-4.773-16.536,0l-12.455,7.191l-0.002,48.327
				C703.913,194.78,703.914,204.327,713.462,204.326"/>
			
				<linearGradient id="SVGID_4_" gradientUnits="userSpaceOnUse" x1="341.626" y1="-132.9331" x2="515.208" y2="-132.9331" gradientTransform="matrix(-0.5 0.866 -0.866 -0.5 837.4133 -318.348)">
				<stop  offset="0" style="stop-color:#00B6ED"/>
				<stop  offset="1" style="stop-color:#00869A"/>
			</linearGradient>
			<path clip-path="url(#SVGID_2_)" fill="url(#SVGID_4_)" d="M683.492,111.392l-40.806,23.56c-8.268,4.773-3.495,13.04-3.495,13.04
				l10.741,18.604c4.773,8.268,13.042,3.495,13.042,3.495l40.939-23.639l-0.001-13.722c0.001-9.547-8.268-14.32-8.268-14.32
				L683.492,111.392z M735.04,18.598l-21.481-0.001c-9.547,0.001-9.548,9.548-9.548,9.548v48.242l12.262,7.079
				c8.268,4.773,16.537,0,16.537,0l11.777-6.8V28.144C744.587,18.597,735.04,18.598,735.04,18.598 M744.488,145.949l41.814,24.142
				c8.269,4.773,13.042-3.495,13.042-3.495l10.74-18.604c4.773-8.268-3.494-13.041-3.494-13.041l-40.902-23.615l-12.932,7.467
				c-8.268,4.772-8.268,14.319-8.268,14.319L744.488,145.949z"/>
			<linearGradient id="SVGID_5_" gradientUnits="userSpaceOnUse" x1="683.4912" y1="111.4199" x2="765.6875" y2="111.4199">
				<stop  offset="0.3077" style="stop-color:#00702F"/>
				<stop  offset="0.8901" style="stop-color:#009338"/>
			</linearGradient>
			<path clip-path="url(#SVGID_2_)" fill="url(#SVGID_5_)" d="M703.915,146.453l12.455-7.191c8.268-4.773,16.536,0,16.536,0
				l11.583,6.688v-12.827c0,0,0-9.547,8.268-14.32l12.931-7.466l-12.833-7.409c-8.269-4.773-8.268-14.319-8.268-14.319v-12.94
				l-11.777,6.8c0,0-8.268,4.773-16.536,0l-12.261-7.079l-0.001,13.61c-0.001,9.548-8.269,14.321-8.269,14.321l-12.252,7.072
				l12.155,7.018c0,0,8.269,4.773,8.268,14.32L703.915,146.453z"/>
		</g>
	</svg>
